<svg xmlns="http://www.w3.org/2000/svg" data-name="Слой 3" viewBox="0 0 4096 4096">
  <defs>
    <linearGradient id="b" x1="1591.3" x2="3402.5" y1="1947" y2="3136.1" gradientUnits="userSpaceOnUse">
      <stop offset=".3" stop-color="#fff"/>
      <stop offset=".4" stop-color="#dbdbdb"/>
      <stop offset=".5" stop-color="#999"/>
      <stop offset=".6" stop-color="#636363"/>
      <stop offset=".7" stop-color="#383838"/>
      <stop offset=".8" stop-color="#191919"/>
      <stop offset=".9" stop-color="#070707"/>
      <stop offset="1"/>
    </linearGradient>
    <filter id="a" width="2683.1" height="2771.4" x="1412" y="1325" color-interpolation-filters="sRGB" filterUnits="userSpaceOnUse">
      <feFlood flood-color="#fff" result="bg"/>
      <feBlend in="SourceGraphic" in2="bg"/>
    </filter>
    <mask id="c" width="2683.1" height="2771.4" x="1412" y="1325" maskUnits="userSpaceOnUse">
      <g filter="url(#a)">
        <path fill="url(#b)" d="M1412 1325h2683v2771H1412z"/>
      </g>
    </mask>
  </defs>
  <path fill="#7c4dff" d="M0 0h4096v4096H0z"/>
  <g fill="#6c3fff" mask="url(#c)">
    <path d="M3587 2861v660c-73-42-162-58-257-25a309 309 0 00153 596 317 317 0 00258-316v-761h195c84 0 154-69 154-154s-70-154-154-154h-195c-85 0-154 69-154 154z"/>
    <path d="M3584 2858v660c-73-41-162-58-257-24a309 309 0 00153 596 317 317 0 00258-317v-760h194a155 155 0 000-309h-194c-85 0-154 70-154 154z"/>
    <path d="M3581 2856v660c-73-42-162-58-257-25a309 309 0 00153 596 317 317 0 00258-317v-760h194c85 0 155-69 155-154s-70-155-155-155h-194c-85 0-154 70-154 155z"/>
    <path d="M3578 2853v660c-73-42-162-58-257-25a309 309 0 00153 596 317 317 0 00258-316v-760h194a155 155 0 000-309h-194c-85 0-154 69-154 154z"/>
    <path d="M3575 2851v659c-73-41-162-57-257-24a309 309 0 00153 596 317 317 0 00258-317v-760h194c85 0 155-70 155-154s-70-155-155-155h-194c-85 0-154 70-154 155z"/>
    <path d="M3572 2848v660c-73-42-162-58-257-25a309 309 0 00153 596 317 317 0 00258-316v-761h194c85 0 155-69 155-154s-70-154-155-154h-194c-85 0-154 69-154 154z"/>
    <path d="M3569 2845v660c-73-41-162-58-257-25a309 309 0 00153 596 317 317 0 00258-316v-760h194a155 155 0 000-309h-194c-85 0-154 69-154 154z"/>
    <path d="M3566 2843v660c-73-42-162-58-257-25a309 309 0 00153 596 317 317 0 00258-317v-760h194c85 0 155-69 155-154s-70-155-155-155h-194c-85 0-154 70-154 155z"/>
    <path d="M3563 2840v660c-73-42-162-58-257-25a309 309 0 00153 596 317 317 0 00258-316v-761h194c85 0 155-69 155-154s-70-154-155-154h-194c-85 0-154 69-154 154z"/>
    <path d="M3560 2837v660c-73-41-162-58-257-24a309 309 0 00153 596 317 317 0 00258-317v-760h194a155 155 0 000-309h-194c-85 0-154 70-154 154z"/>
    <path d="M3557 2835v660c-73-42-162-58-257-25a309 309 0 00153 596 317 317 0 00258-317v-760h194c85 0 155-69 155-154s-70-155-155-155h-194c-85 0-154 70-154 155z"/>
    <path d="M3554 2832v660c-73-42-162-58-257-25a309 309 0 00153 596 317 317 0 00258-316v-760h194a155 155 0 000-309h-194c-85 0-154 69-154 154z"/>
    <path d="M3551 2830v659c-73-41-162-57-257-24a309 309 0 00153 596 317 317 0 00258-317v-760h194c85 0 155-70 155-154s-70-155-155-155h-194c-85 0-154 70-154 155z"/>
    <path d="M3548 2827v660c-73-42-162-58-257-25a309 309 0 00153 596 317 317 0 00258-316v-761h194c85 0 155-69 155-154s-70-154-155-154h-194c-85 0-154 69-154 154z"/>
    <path d="M3545 2824v660c-73-41-162-58-257-24a309 309 0 00153 596 317 317 0 00258-317v-760h194a155 155 0 000-309h-194c-85 0-154 69-154 154z"/>
    <path d="M3542 2822v660c-73-42-162-58-257-25a309 309 0 00153 596 317 317 0 00258-317v-760h194c85 0 155-69 155-154s-70-155-155-155h-194c-85 0-154 70-154 155z"/>
    <path d="M3539 2819v660c-73-42-162-58-257-25a309 309 0 00153 596 317 317 0 00258-316v-761h194c85 0 155-69 155-154s-70-154-155-154h-194c-85 0-154 69-154 154z"/>
    <path d="M3536 2816v660c-73-41-162-58-257-24a309 309 0 00153 596 317 317 0 00258-317v-760h194a155 155 0 000-309h-194c-85 0-154 70-154 154z"/>
    <path d="M3533 2814v660c-73-42-163-58-257-25a309 309 0 00153 596 317 317 0 00258-317v-760h194c85 0 154-69 154-154s-69-155-154-155h-194c-85 0-154 70-154 155z"/>
    <path d="M3530 2811v660c-73-42-163-58-257-25a309 309 0 00153 596 317 317 0 00258-316v-760h194a155 155 0 000-309h-194c-85 0-154 69-154 154z"/>
    <path d="M3527 2809v659c-73-41-163-57-257-24a309 309 0 00153 596 317 317 0 00258-317v-760h194c85 0 154-69 154-154s-69-155-154-155h-194c-85 0-154 70-154 155z"/>
    <path d="M3524 2806v660c-73-42-163-58-257-25a309 309 0 00153 596 317 317 0 00258-316v-761h194c85 0 154-69 154-154s-69-154-154-154h-194c-85 0-154 69-154 154z"/>
    <path d="M3521 2803v660c-73-41-163-58-257-24a309 309 0 00153 596 317 317 0 00258-317v-760h194a155 155 0 000-309h-194c-85 0-154 69-154 154z"/>
    <path d="M3517 2801v660c-72-42-162-58-257-25a309 309 0 00153 596 317 317 0 00259-317v-760h194c85 0 154-69 154-154s-69-155-154-155h-194c-85 0-155 70-155 155z"/>
    <path d="M3514 2798v660c-72-42-162-58-257-25a309 309 0 00153 596 317 317 0 00259-316v-761h194c85 0 154-69 154-154s-69-154-154-154h-194c-85 0-155 69-155 154z"/>
    <path d="M3511 2796v659c-72-41-162-57-257-24a309 309 0 00153 596 317 317 0 00259-317v-760h194c85 0 154-70 154-154s-69-155-154-155h-194c-85 0-155 70-155 155z"/>
    <path d="M3508 2793v660c-72-42-162-58-257-25a309 309 0 00153 596 317 317 0 00259-317v-760h194c85 0 154-69 154-154s-69-154-154-154h-194c-85 0-155 69-155 154z"/>
    <path d="M3505 2790v660c-72-42-162-58-257-25a309 309 0 00153 596 317 317 0 00259-316v-760h194a155 155 0 000-309h-194c-85 0-155 69-155 154z"/>
    <path d="M3502 2788v660c-72-42-162-58-257-25a309 309 0 00153 596 317 317 0 00259-317v-760h194c85 0 154-69 154-154s-69-155-154-155h-194c-85 0-155 70-155 155z"/>
    <path d="M3499 2785v660c-72-42-162-58-257-25a309 309 0 00153 596 317 317 0 00259-316v-761h194c85 0 154-69 154-154s-69-154-154-154h-194c-85 0-155 69-155 154z"/>
    <path d="M3496 2782v660c-72-41-162-58-257-24a309 309 0 00153 596 317 317 0 00259-317v-760h194a155 155 0 000-309h-194c-85 0-155 69-155 154z"/>
    <path d="M3493 2780v660c-72-42-162-58-257-25a309 309 0 00153 596 317 317 0 00259-317v-760h194c85 0 154-69 154-154s-69-155-154-155h-194c-85 0-155 70-155 155z"/>
    <path d="M3490 2777v660c-72-42-162-58-257-25a309 309 0 00153 596 317 317 0 00259-316v-760h194a155 155 0 000-309h-194c-85 0-155 69-155 154z"/>
    <path d="M3487 2775v659c-72-41-162-57-257-24a309 309 0 00153 596 317 317 0 00259-317v-760h194c85 0 154-70 154-154s-69-155-154-155h-194c-85 0-155 70-155 155z"/>
    <path d="M3484 2772v660c-72-42-162-58-257-25a309 309 0 00153 596 317 317 0 00259-317v-760h194c85 0 154-69 154-154s-69-154-154-154h-194c-85 0-155 69-155 154z"/>
    <path d="M3481 2769v660c-72-42-162-58-257-25a309 309 0 00153 596 317 317 0 00259-316v-760h194a155 155 0 000-309h-194c-85 0-155 69-155 154z"/>
    <path d="M3478 2767v660c-72-42-162-58-257-25a309 309 0 00153 596 317 317 0 00259-317v-760h194c85 0 154-69 154-154s-69-155-154-155h-194c-85 0-155 70-155 155z"/>
    <path d="M3475 2764v660c-72-42-162-58-257-25a309 309 0 00153 596 317 317 0 00259-316v-761h194c85 0 154-69 154-154s-69-154-154-154h-194c-85 0-155 69-155 154z"/>
    <path d="M3472 2761v660c-72-41-162-58-257-24a309 309 0 00153 596 317 317 0 00259-317v-760h194a155 155 0 000-309h-194c-85 0-155 70-155 154z"/>
    <path d="M3469 2759v660c-72-42-162-58-257-25a309 309 0 00153 596 317 317 0 00259-317v-760h194c85 0 154-69 154-154s-69-155-154-155h-194c-85 0-155 70-155 155z"/>
    <path d="M3466 2756v660c-72-42-162-58-257-25a309 309 0 00153 596 317 317 0 00258-316v-760h195a155 155 0 000-309h-194c-85 0-155 69-155 154z"/>
    <path d="M3463 2754v659c-72-41-162-57-257-24a309 309 0 00153 596 317 317 0 00258-317v-760h195c85 0 154-70 154-154s-69-155-154-155h-194c-85 0-155 70-155 155z"/>
    <path d="M3460 2751v660c-72-42-162-58-257-25a309 309 0 00153 596 317 317 0 00258-317v-760h195c84 0 154-69 154-154s-69-154-154-154h-195c-84 0-154 69-154 154z"/>
    <path d="M3457 2748v660c-72-41-162-58-257-25a309 309 0 00153 596 317 317 0 00258-316v-760h195a155 155 0 000-309h-195c-84 0-154 69-154 154z"/>
    <path d="M3454 2746v660c-73-42-162-58-257-25a309 309 0 00153 596 317 317 0 00258-317v-760h195c84 0 154-69 154-154s-70-155-154-155h-195c-84 0-154 70-154 155z"/>
    <path d="M3451 2743v660c-73-42-162-58-257-25a309 309 0 00153 596 317 317 0 00258-316v-761h195c84 0 154-69 154-154s-70-154-154-154h-195c-84 0-154 69-154 154z"/>
    <path d="M3448 2740v660c-73-41-162-58-257-24a309 309 0 00153 596 317 317 0 00258-317v-760h195a155 155 0 000-309h-195c-85 0-154 70-154 154z"/>
    <path d="M3445 2738v660c-73-42-162-58-257-25a309 309 0 00153 596 317 317 0 00258-317v-760h194c85 0 155-69 155-154s-70-155-155-155h-194c-85 0-154 70-154 155z"/>
    <path d="M3442 2735v660c-73-42-162-58-257-25a309 309 0 00153 596 317 317 0 00258-316v-760h195a155 155 0 000-309h-195c-85 0-154 69-154 154z"/>
    <path d="M3439 2733v659c-73-41-162-57-257-24a309 309 0 00153 596 317 317 0 00258-317v-760h194c85 0 155-70 155-154s-70-155-155-155h-194c-85 0-154 70-154 155z"/>
    <path d="M3436 2730v660c-73-42-162-58-257-25a309 309 0 00153 596 317 317 0 00258-316v-761h194c85 0 155-69 155-154s-70-154-155-154h-194c-85 0-154 69-154 154z"/>
    <path d="M3433 2727v660c-73-41-162-58-257-24a309 309 0 00153 596 317 317 0 00258-317v-760h194a155 155 0 000-309h-194c-85 0-154 69-154 154z"/>
    <path d="M3430 2725v660c-73-42-162-58-257-25a309 309 0 00153 596 317 317 0 00258-317v-760h194c85 0 155-69 155-154s-70-155-155-155h-194c-85 0-154 70-154 155z"/>
    <path d="M3427 2722v660c-73-42-162-58-257-25a309 309 0 00153 596 317 317 0 00258-316v-761h194c85 0 155-69 155-154s-70-154-155-154h-194c-85 0-154 69-154 154z"/>
    <path d="M3424 2719v660c-73-41-162-58-257-24a309 309 0 00153 596 317 317 0 00258-317v-760h194a155 155 0 000-309h-194c-85 0-154 70-154 154z"/>
    <path d="M3421 2717v660c-73-42-162-58-257-25a309 309 0 00153 596 317 317 0 00258-317v-760h194c85 0 155-69 155-154s-70-155-155-155h-194c-85 0-154 70-154 155z"/>
    <path d="M3418 2714v660c-73-42-162-58-257-25a309 309 0 00153 596 317 317 0 00258-316v-760h194a155 155 0 000-309h-194c-85 0-154 69-154 154z"/>
    <path d="M3415 2712v659c-73-41-162-57-257-24a309 309 0 00153 596 317 317 0 00258-317v-760h194c85 0 155-69 155-154s-70-155-155-155h-194c-85 0-154 70-154 155z"/>
    <path d="M3412 2709v660c-73-42-162-58-257-25a309 309 0 00153 596 317 317 0 00258-316v-761h194c85 0 155-69 155-154s-70-154-155-154h-194c-85 0-154 69-154 154z"/>
    <path d="M3409 2706v660c-73-41-162-58-257-24a309 309 0 00153 596 317 317 0 00258-317v-760h194a155 155 0 000-309h-194c-85 0-154 69-154 154z"/>
    <path d="M3406 2704v660c-73-42-162-58-257-25a309 309 0 00153 596 317 317 0 00258-317v-760h194c85 0 155-69 155-154s-70-155-155-155h-194c-85 0-154 70-154 155z"/>
    <path d="M3403 2701v660c-73-42-162-58-257-25a309 309 0 00153 596 317 317 0 00258-316v-761h194c85 0 155-69 155-154s-70-154-155-154h-194c-85 0-154 69-154 154z"/>
    <path d="M3400 2698v660c-73-41-162-58-257-24a309 309 0 00153 596 317 317 0 00258-317v-760h194a155 155 0 000-309h-194c-85 0-154 70-154 154z"/>
    <path d="M3397 2696v660c-73-42-162-58-257-25a309 309 0 00153 596 317 317 0 00258-317v-760h194c85 0 155-69 155-154s-70-155-155-155h-194c-85 1-154 70-154 155z"/>
    <path d="M3394 2693v660c-73-42-162-58-257-25a309 309 0 00153 596 317 317 0 00258-316v-760h194a155 155 0 000-309h-194c-85 0-154 69-154 154z"/>
    <path d="M3391 2691v660c-73-42-162-58-257-25a309 309 0 00153 596 317 317 0 00258-317v-760h194c85 0 154-69 154-154s-69-155-154-155h-194c-85 0-154 70-154 155z"/>
    <path d="M3388 2688v660c-73-42-163-58-257-25a309 309 0 00153 596 317 317 0 00258-316v-761h194c85 0 154-69 154-154s-69-154-154-154h-194c-85 0-154 69-154 154z"/>
    <path d="M3385 2685v660c-73-41-163-58-257-24a309 309 0 00153 596 317 317 0 00258-317v-760h194a155 155 0 000-309h-194c-85 0-154 69-154 154z"/>
    <path d="M3382 2683v660c-73-42-163-58-257-25a309 309 0 00153 596 317 317 0 00258-317v-760h194c85 0 154-69 154-154s-69-155-154-155h-194c-85 0-154 70-154 155z"/>
    <path d="M3379 2680v660c-73-42-163-58-257-25a309 309 0 00153 596 317 317 0 00258-316v-761h194c85 0 154-69 154-154s-69-154-154-154h-194c-85 0-154 69-154 154z"/>
    <path d="M3375 2678v659c-72-41-162-57-257-24a309 309 0 00153 596 317 317 0 00259-317v-760h194c85 0 154-70 154-154s-69-155-154-155h-194c-85 0-155 70-155 155z"/>
    <path d="M3372 2675v660c-72-42-162-58-257-25a309 309 0 00153 596 317 317 0 00259-317v-760h194c85 0 154-69 154-154s-69-154-154-154h-194c-85 0-155 69-155 154z"/>
    <path d="M3369 2672v660c-72-42-162-58-257-25a309 309 0 00153 596 317 317 0 00259-316v-760h194a155 155 0 000-309h-194c-85 0-155 69-155 154z"/>
    <path d="M3366 2670v660c-72-42-162-58-257-25a309 309 0 00153 596 317 317 0 00259-317v-760h194c85 0 154-69 154-154s-69-155-154-155h-194c-85 0-155 70-155 155z"/>
    <path d="M3363 2667v660c-72-42-162-58-257-25a309 309 0 00153 596 317 317 0 00259-316v-761h194c85 0 154-69 154-154s-69-154-154-154h-194c-85 0-155 69-155 154z"/>
    <path d="M3360 2664v660c-72-41-162-58-257-24a309 309 0 00153 596 317 317 0 00259-317v-760h194a155 155 0 000-309h-194c-85 0-155 70-155 154z"/>
    <path d="M3357 2662v660c-72-42-162-58-257-25a309 309 0 00153 596 317 317 0 00259-317v-760h194c85 0 154-69 154-154s-69-155-154-155h-194c-85 0-155 70-155 155z"/>
    <path d="M3354 2659v660c-72-42-162-58-257-25a309 309 0 00153 596 317 317 0 00259-316v-760h194a155 155 0 000-309h-194c-85 0-155 69-155 154z"/>
    <path d="M3351 2657v659c-72-41-162-57-257-24a309 309 0 00153 596 317 317 0 00259-317v-760h194c85 0 154-70 154-154s-69-155-154-155h-194c-85 0-155 70-155 155z"/>
    <path d="M3348 2654v660c-72-42-162-58-257-25a309 309 0 00153 596 317 317 0 00259-317v-760h194c85 0 154-69 154-154s-69-154-154-154h-194c-85 0-155 69-155 154z"/>
    <path d="M3345 2651v660c-72-41-162-58-257-25a309 309 0 00153 596 317 317 0 00259-316v-760h194a155 155 0 000-309h-194c-85 0-155 69-155 154z"/>
    <path d="M3342 2649v660c-72-42-162-58-257-25a309 309 0 00153 596 317 317 0 00259-317v-760h194c85 0 154-69 154-154s-69-155-154-155h-194c-85 0-155 70-155 155z"/>
    <path d="M3339 2646v660c-72-42-162-58-257-25a309 309 0 00153 596 317 317 0 00259-316v-761h194c85 0 154-69 154-154s-69-154-154-154h-194c-85 0-155 69-155 154z"/>
    <path d="M3336 2643v660c-72-41-162-58-257-24a309 309 0 00153 596 317 317 0 00259-317v-760h194a155 155 0 000-309h-194c-85 0-155 70-155 154z"/>
    <path d="M3333 2641v660c-72-42-162-58-257-25a309 309 0 00153 596 317 317 0 00259-317v-760h194c85 0 154-69 154-154s-69-155-154-155h-194c-85 0-155 70-155 155z"/>
    <path d="M3330 2638v660c-72-42-162-58-257-25a309 309 0 00153 596 317 317 0 00259-316v-760h194a155 155 0 000-309h-194c-85 0-155 69-155 154z"/>
    <path d="M3327 2636v659c-72-41-162-57-257-24a309 309 0 00153 596 317 317 0 00258-317l1-760h194c85 0 154-70 154-154s-69-155-154-155h-194c-85 0-155 70-155 155z"/>
    <path d="M3324 2633v660c-72-42-162-58-257-25a309 309 0 00153 596 317 317 0 00258-317v-760h195c85 0 154-69 154-154s-69-154-154-154h-194c-85 0-155 69-155 154z"/>
    <path d="M3321 2630v660c-72-41-162-58-257-25a309 309 0 00153 596 317 317 0 00258-316v-760h195a155 155 0 000-309h-194c-85 0-155 69-155 154z"/>
    <path d="M3318 2628v660c-72-42-162-58-257-25a309 309 0 00153 596 317 317 0 00258-317v-760h195c84 0 154-69 154-154s-69-155-154-155h-195c-84 0-154 70-154 155z"/>
    <path d="M3315 2625v660c-72-42-162-58-257-25a309 309 0 00153 596 317 317 0 00258-316v-761h195c84 0 154-69 154-154s-70-154-154-154h-195c-84 0-154 69-154 154z"/>
    <path d="M3312 2622v660c-73-41-162-58-257-24a309 309 0 00153 596 317 317 0 00258-317v-760h195a155 155 0 000-309h-195c-84 0-154 70-154 154z"/>
    <path d="M3309 2620v660c-73-42-162-58-257-25a309 309 0 00153 596 317 317 0 00258-317v-760h195c84 0 154-69 154-154s-70-155-154-155h-195c-84 0-154 70-154 155z"/>
    <path d="M3306 2617v660c-73-42-162-58-257-25a309 309 0 00153 596 317 317 0 00258-316v-760h195a155 155 0 000-309h-195c-84 0-154 69-154 154z"/>
    <path d="M3303 2615v659c-73-41-162-57-257-24a309 309 0 00153 596 317 317 0 00258-317v-760h195c84 0 154-70 154-154s-70-155-154-155h-195c-85 0-154 70-154 155z"/>
    <path d="M3300 2612v660c-73-42-162-58-257-25a309 309 0 00153 596 317 317 0 00258-316v-761h195c84 0 154-69 154-154s-70-154-154-154h-195c-85 0-154 69-154 154z"/>
    <path d="M3297 2609v660c-73-41-162-58-257-24a309 309 0 00153 596 317 317 0 00258-317v-760h194a155 155 0 000-309h-194c-85 0-154 69-154 154z"/>
    <path d="M3294 2607v660c-73-42-162-58-257-25a309 309 0 00153 596 317 317 0 00258-317v-760h194c85 0 155-69 155-154s-70-155-155-155h-194c-85 0-154 70-154 155z"/>
    <path d="M3291 2604v660c-73-42-162-58-257-25a309 309 0 00153 596 317 317 0 00258-316v-761h194c85 0 155-69 155-154s-70-154-155-154h-194c-85 0-154 69-154 154z"/>
    <path d="M3288 2601v660c-73-41-162-58-257-24a309 309 0 00153 596 317 317 0 00258-317v-760h194a155 155 0 000-309h-194c-85 0-154 70-154 154z"/>
    <path d="M3285 2599v660c-73-42-162-58-257-25a309 309 0 00153 596 317 317 0 00258-317v-760h194c85 0 155-69 155-154s-70-155-155-155h-194c-85 0-154 70-154 155z"/>
    <path d="M3282 2596v660c-73-42-162-58-257-25a309 309 0 00153 596 317 317 0 00258-316v-760h194a155 155 0 000-309h-194c-85 0-154 69-154 154z"/>
    <path d="M3279 2594v659c-73-41-162-57-257-24a309 309 0 00153 596 317 317 0 00258-317v-760h194c85 0 155-69 155-154s-70-155-155-155h-194c-85 0-154 70-154 155z"/>
    <path d="M3276 2591v660c-73-42-162-58-257-25a309 309 0 00153 596 317 317 0 00258-316v-761h194c85 0 155-69 155-154s-70-154-155-154h-194c-85 0-154 69-154 154z"/>
    <path d="M3273 2588v660c-73-41-162-58-257-24a309 309 0 00153 596 317 317 0 00258-317v-760h194a155 155 0 000-309h-194c-85 0-154 69-154 154z"/>
    <path d="M3270 2586v660c-73-42-162-58-257-25a309 309 0 00153 596 317 317 0 00258-317v-760h194c85 0 155-69 155-154s-70-155-155-155h-194c-85 0-154 70-154 155z"/>
    <path d="M3267 2583v660c-73-42-162-58-257-25a309 309 0 00153 596 317 317 0 00258-316v-761h194c85 0 155-69 155-154s-70-154-155-154h-194c-85 0-154 69-154 154z"/>
    <path d="M3264 2580v660c-73-41-162-58-257-24a309 309 0 00153 596 317 317 0 00258-317v-760h194a155 155 0 000-309h-194c-85 0-154 70-154 154z"/>
    <path d="M3261 2578v660c-73-42-162-58-257-25a309 309 0 00153 596 317 317 0 00258-317v-760h194c85 0 155-69 155-154s-70-154-155-154h-194c-85 0-154 69-154 154z"/>
    <path d="M3258 2575v660c-73-42-162-58-257-25a309 309 0 00153 596 317 317 0 00258-316v-760h194a155 155 0 000-309h-194c-85 0-154 69-154 154z"/>
    <path d="M3255 2573v660c-73-42-162-58-257-25a309 309 0 00153 596 317 317 0 00258-317v-760h194c85 0 155-69 155-154s-70-155-155-155h-194c-85 0-154 70-154 155z"/>
    <path d="M3252 2570v660c-73-42-162-58-257-25a309 309 0 00153 596 317 317 0 00258-316v-761h194c85 0 154-69 154-154s-69-154-154-154h-194c-85 0-154 69-154 154z"/>
    <path d="M3249 2567v660c-73-41-162-58-257-24a309 309 0 00153 596 317 317 0 00258-317v-760h194a155 155 0 000-309h-194c-85 0-154 69-154 154z"/>
    <path d="M3246 2565v660c-73-42-163-58-257-25a309 309 0 00153 596 317 317 0 00258-317v-760h194c85 0 154-69 154-154s-69-155-154-155h-194c-85 0-154 70-154 155z"/>
    <path d="M3243 2562v660c-73-42-163-58-257-25a309 309 0 00153 596 317 317 0 00258-316v-760h194a155 155 0 000-309h-194c-85 0-154 69-154 154z"/>
    <path d="M3240 2560v659c-73-41-163-57-257-24a309 309 0 00153 596 317 317 0 00258-317v-760h194c85 0 154-70 154-154s-69-155-154-155h-194c-85 0-154 70-154 155z"/>
    <path d="M3237 2557v660c-73-42-163-58-257-25a309 309 0 00153 596 317 317 0 00258-317v-760h194c85 0 154-69 154-154s-69-154-154-154h-194c-85 0-154 69-154 154z"/>
    <path d="M3233 2554v660c-72-42-162-58-257-25a309 309 0 00153 596 317 317 0 00259-316v-760h194a155 155 0 000-309h-194c-85 0-155 69-155 154z"/>
    <path d="M3230 2552v660c-72-42-162-58-257-25a309 309 0 00153 596 317 317 0 00259-317v-760h194c85 0 154-69 154-154s-69-155-154-155h-194c-85 0-155 70-155 155z"/>
    <path d="M3227 2549v660c-72-42-162-58-257-25a309 309 0 00153 596 317 317 0 00259-316v-761h194c85 0 154-69 154-154s-69-154-154-154h-194c-85 0-155 69-155 154z"/>
    <path d="M3224 2546v660c-72-41-162-58-257-24a309 309 0 00153 596 317 317 0 00259-317v-760h194a155 155 0 000-309h-194c-85 0-155 70-155 154z"/>
    <path d="M3221 2544v660c-72-42-162-58-257-25a309 309 0 00153 596 317 317 0 00259-317v-760h194c85 0 154-69 154-154s-69-155-154-155h-194c-85 0-155 70-155 155z"/>
    <path d="M3218 2541v660c-72-42-162-58-257-25a309 309 0 00153 596 317 317 0 00259-316v-760h194a155 155 0 000-309h-194c-85 0-155 69-155 154z"/>
    <path d="M3215 2539v659c-72-41-162-57-257-24a309 309 0 00153 596 317 317 0 00259-317v-760h194c85 0 154-70 154-154s-69-155-154-155h-194c-85 0-155 70-155 155z"/>
    <path d="M3212 2536v660c-72-42-162-58-257-25a309 309 0 00153 596 317 317 0 00259-317v-760h194c85 0 154-69 154-154s-69-154-154-154h-194c-85 0-155 69-155 154z"/>
    <path d="M3209 2533v660c-72-41-162-58-257-25a309 309 0 00153 596 317 317 0 00259-316v-760h194a155 155 0 000-309h-194c-85 0-155 69-155 154z"/>
    <path d="M3206 2531v660c-72-42-162-58-257-25a309 309 0 00153 596 317 317 0 00259-317v-760h194c85 0 154-69 154-154s-69-155-154-155h-194c-85 0-155 70-155 155z"/>
    <path d="M3203 2528v660c-72-42-162-58-257-25a309 309 0 00153 596 317 317 0 00259-316v-761h194c85 0 154-69 154-154s-69-154-154-154h-194c-85 0-155 69-155 154z"/>
    <path d="M3200 2525v660c-72-41-162-58-257-24a309 309 0 00153 596 317 317 0 00259-317v-760h194a155 155 0 000-309h-194c-85 0-155 70-155 154z"/>
    <path d="M3197 2523v660c-72-42-162-58-257-25a309 309 0 00153 596 317 317 0 00259-317v-760h194c85 0 154-69 154-154s-69-155-154-155h-194c-85 0-155 70-155 155z"/>
    <path d="M3194 2520v660c-72-42-162-58-257-25a309 309 0 00153 596 317 317 0 00259-316v-760h194a155 155 0 000-309h-194c-85 0-155 69-155 154z"/>
    <path d="M3191 2518v659c-72-41-162-57-257-24a309 309 0 00153 596 317 317 0 00259-317v-760h194c85 0 154-70 154-154s-69-155-154-155h-194c-85 0-155 70-155 155z"/>
    <path d="M3188 2515v660c-72-42-162-58-257-25a309 309 0 00153 596 317 317 0 00259-316v-761h194c85 0 154-69 154-154s-69-154-154-154h-194c-85 0-155 69-155 154z"/>
    <path d="M3185 2512v660c-72-41-162-58-257-25a309 309 0 00153 596 317 317 0 00259-316v-760h194a155 155 0 000-309h-194c-85 0-155 69-155 154z"/>
    <path d="M3182 2510v660c-72-42-162-58-257-25a309 309 0 00153 596 317 317 0 00258-317v-760h195c85 0 154-69 154-154s-69-155-154-155h-194c-85 0-155 70-155 155z"/>
    <path d="M3179 2507v660c-72-42-162-58-257-25a309 309 0 00153 596 317 317 0 00258-316v-761h195c85 0 154-69 154-154s-69-154-154-154h-194c-85 0-155 69-155 154z"/>
    <path d="M3176 2504v660c-72-41-162-58-257-24a309 309 0 00153 596 317 317 0 00258-317v-760h195a155 155 0 000-309h-195c-84 0-154 70-154 154z"/>
    <path d="M3173 2502v660c-72-42-162-58-257-25a309 309 0 00153 596 317 317 0 00258-317v-760h195c84 0 154-69 154-154s-70-155-154-155h-195c-84 0-154 70-154 155z"/>
    <path d="M3170 2499v660c-73-42-162-58-257-25a309 309 0 00153 596 317 317 0 00258-316v-760h195a155 155 0 000-309h-195c-84 0-154 69-154 154z"/>
    <path d="M3167 2497v659c-73-41-162-57-257-24a309 309 0 00153 596 317 317 0 00258-317v-760h195c84 0 154-69 154-154s-70-155-154-155h-195c-84 0-154 70-154 155z"/>
    <path d="M3164 2494v660c-73-42-162-58-257-25a309 309 0 00153 596 317 317 0 00258-316v-761h195c84 0 154-69 154-154s-70-154-154-154h-195c-84 0-154 69-154 154z"/>
    <path d="M3161 2491v660c-73-41-162-58-257-24a309 309 0 00153 596 317 317 0 00258-317v-760h195a155 155 0 000-309h-195c-85 0-154 69-154 154z"/>
    <path d="M3158 2489v660c-73-42-162-58-257-25a309 309 0 00153 596 317 317 0 00258-317v-760h195c84 0 154-69 154-154s-70-155-154-155h-195c-85 0-154 70-154 155z"/>
    <path d="M3155 2486v660c-73-42-162-58-257-25a309 309 0 00153 596 317 317 0 00258-316v-761h194c85 0 155-69 155-154s-70-154-155-154h-194c-85 0-154 69-154 154z"/>
    <path d="M3152 2483v660c-73-41-162-58-257-24a309 309 0 00153 596 317 317 0 00258-317v-760h194a155 155 0 000-309h-194c-85 0-154 70-154 154z"/>
    <path d="M3149 2481v660c-73-42-162-58-257-25a309 309 0 00153 596 317 317 0 00258-317v-760h194c85 0 155-69 155-154s-70-155-155-155h-194c-85 1-154 70-154 155z"/>
    <path d="M3146 2478v660c-73-42-162-58-257-25a309 309 0 00153 596 317 317 0 00258-316v-760h194a155 155 0 000-309h-194c-85 0-154 69-154 154z"/>
    <path d="M3143 2476v659c-73-41-162-57-257-24a309 309 0 00153 596 317 317 0 00258-317v-760h194c85 0 155-69 155-154s-70-155-155-155h-194c-85 0-154 70-154 155z"/>
    <path d="M3140 2473v660c-73-42-162-58-257-25a309 309 0 00153 596 317 317 0 00258-316v-761h194c85 0 155-69 155-154s-70-154-155-154h-194c-85 0-154 69-154 154z"/>
    <path d="M3137 2470v660c-73-41-162-58-257-24a309 309 0 00153 596 317 317 0 00258-317v-760h194a155 155 0 000-309h-194c-85 0-154 69-154 154z"/>
    <path d="M3134 2468v660c-73-42-162-58-257-25a309 309 0 00153 596 317 317 0 00258-317v-760h194c85 0 155-69 155-154s-70-155-155-155h-194c-85 0-154 70-154 155z"/>
    <path d="M3131 2465v660c-73-42-162-58-257-25a309 309 0 00153 596 317 317 0 00258-316v-761h194c85 0 155-69 155-154s-70-154-155-154h-194c-85 0-154 69-154 154z"/>
    <path d="M3128 2463v659c-73-41-162-57-257-24a309 309 0 00153 596 317 317 0 00258-317v-760h194c85 0 155-70 155-154s-70-155-155-155h-194c-85 0-154 70-154 155z"/>
    <path d="M3125 2460v660c-73-42-162-58-257-25a309 309 0 00153 596 317 317 0 00258-317v-760h194c85 0 155-69 155-154s-70-154-155-154h-194c-85 0-154 69-154 154z"/>
    <path d="M3122 2457v660c-73-42-162-58-257-25a309 309 0 00153 596 317 317 0 00258-316v-760h194a155 155 0 000-309h-194c-85 0-154 69-154 154z"/>
    <path d="M3119 2455v660c-73-42-162-58-257-25a309 309 0 00153 596 317 317 0 00258-317v-760h194c85 0 155-69 155-154s-70-155-155-155h-194c-85 0-154 70-154 155z"/>
    <path d="M3116 2452v660c-73-42-162-58-257-25a309 309 0 00153 596 317 317 0 00258-316v-761h194c85 0 155-69 155-154s-70-154-155-154h-194c-85 0-154 69-154 154z"/>
    <path d="M3113 2449v660c-73-41-162-58-257-24a309 309 0 00153 596 317 317 0 00258-317v-760h194a155 155 0 000-309h-194c-85 0-154 69-154 154z"/>
    <path d="M3110 2447v660c-73-42-162-58-257-25a309 309 0 00153 596 317 317 0 00258-317v-760h194c85 0 155-69 155-154s-70-155-155-155h-194c-85 0-154 70-154 155z"/>
    <path d="M3107 2444v660c-73-42-162-58-257-25a309 309 0 00153 596 317 317 0 00258-316v-760h194a155 155 0 000-309h-194c-85 0-154 69-154 154z"/>
    <path d="M3104 2442v659c-73-41-163-57-257-24a309 309 0 00153 596 317 317 0 00258-317v-760h194c85 0 154-70 154-154s-69-155-154-155h-194c-85 0-154 70-154 155z"/>
    <path d="M3101 2439v660c-73-42-163-58-257-25a309 309 0 00153 596 317 317 0 00258-317v-760h194c85 0 154-69 154-154s-69-154-154-154h-194c-85 0-154 69-154 154z"/>
    <path d="M3098 2436v660c-73-42-163-58-257-25a309 309 0 00153 596 317 317 0 00258-316v-760h194a155 155 0 000-309h-194c-85 0-154 69-154 154z"/>
    <path d="M3095 2434v660c-73-42-163-58-257-25a309 309 0 00153 596 317 317 0 00258-317v-760h194c85 0 154-69 154-154s-69-155-154-155h-194c-85 0-154 70-154 155z"/>
    <path d="M3091 2431v660c-72-42-162-58-257-25a309 309 0 00153 596 317 317 0 00259-316v-761h194c85 0 154-69 154-154s-69-154-154-154h-194c-85 0-155 69-155 154z"/>
    <path d="M3088 2428v660c-72-41-162-58-257-24a309 309 0 00153 596 317 317 0 00259-317v-760h194a155 155 0 000-309h-194c-85 0-155 70-155 154z"/>
    <path d="M3085 2426v660c-72-42-162-58-257-25a309 309 0 00153 596 317 317 0 00259-317v-760h194c85 0 154-69 154-154s-69-155-154-155h-194c-85 0-155 70-155 155z"/>
    <path d="M3082 2423v660c-72-42-162-58-257-25a309 309 0 00153 596 317 317 0 00259-316v-760h194a155 155 0 000-309h-194c-85 0-155 69-155 154z"/>
    <path d="M3079 2421v659c-72-41-162-57-257-24a309 309 0 00153 596 317 317 0 00259-317v-760h194c85 0 154-70 154-154s-69-155-154-155h-194c-85 0-155 70-155 155z"/>
    <path d="M3076 2418v660c-72-42-162-58-257-25a309 309 0 00153 596 317 317 0 00259-317v-760h194c85 0 154-69 154-154s-69-154-154-154h-194c-85 0-155 69-155 154z"/>
    <path d="M3073 2415v660c-72-41-162-58-257-25a309 309 0 00153 596 317 317 0 00259-316v-760h194a155 155 0 000-309h-194c-85 0-155 69-155 154z"/>
    <path d="M3070 2413v660c-72-42-162-58-257-25a309 309 0 00153 596 317 317 0 00259-317v-760h194c85 0 154-69 154-154s-69-155-154-155h-194c-85 0-155 70-155 155z"/>
    <path d="M3067 2410v660c-72-42-162-58-257-25a309 309 0 00153 596 317 317 0 00259-316v-761h194c85 0 154-69 154-154s-69-154-154-154h-194c-85 0-155 69-155 154z"/>
    <path d="M3064 2407v660c-72-41-162-58-257-24a309 309 0 00153 596 317 317 0 00259-317v-760h194a155 155 0 000-309h-194c-85 0-155 70-155 154z"/>
    <path d="M3061 2405v660c-72-42-162-58-257-25a309 309 0 00153 596 317 317 0 00259-317v-760h194c85 0 154-69 154-154s-69-155-154-155h-194c-85 0-155 70-155 155z"/>
    <path d="M3058 2402v660c-72-42-162-58-257-25a309 309 0 00153 596 317 317 0 00259-316v-760h194a155 155 0 000-309h-194c-85 0-155 69-155 154z"/>
    <path d="M3055 2400v659c-72-41-162-57-257-24a309 309 0 00153 596 317 317 0 00259-317v-760h194c85 0 154-70 154-154s-69-155-154-155h-194c-85 0-155 70-155 155z"/>
    <path d="M3052 2397v660c-72-42-162-58-257-25a309 309 0 00153 596 317 317 0 00259-316v-761h194c85 0 154-69 154-154s-69-154-154-154h-194c-85 0-155 69-155 154z"/>
    <path d="M3049 2394v660c-72-41-162-58-257-24a309 309 0 00153 596 317 317 0 00259-317v-760h194a155 155 0 000-309h-194c-85 0-155 69-155 154z"/>
    <path d="M3046 2392v660c-72-42-162-58-257-25a309 309 0 00153 596 317 317 0 00259-317v-760h194c85 0 154-69 154-154s-69-155-154-155h-194c-85 0-155 70-155 155z"/>
    <path d="M3043 2389v660c-72-42-162-58-257-25a309 309 0 00153 596 317 317 0 00259-316v-761h194c85 0 154-69 154-154s-69-154-154-154h-194c-85 0-155 69-155 154z"/>
    <path d="M3040 2386v660c-72-41-162-58-257-24a309 309 0 00153 596 317 317 0 00258-317v-760h195a155 155 0 000-309h-194c-85 0-155 70-155 154z"/>
    <path d="M3037 2384v660c-72-42-162-58-257-25a309 309 0 00153 596 317 317 0 00258-317v-760h195c85 0 154-69 154-154s-69-155-154-155h-194c-85 0-155 70-155 155z"/>
    <path d="M3034 2381v660c-72-42-162-58-257-25a309 309 0 00153 596 317 317 0 00258-316v-760h195a155 155 0 000-309h-195c-84 0-154 69-154 154z"/>
    <path d="M3031 2379v659c-72-41-162-57-257-24a309 309 0 00153 596 317 317 0 00258-317v-760h195c84 0 154-69 154-154s-70-155-154-155h-195c-84 0-154 70-154 155z"/>
    <path d="M3028 2376v660c-72-42-162-58-257-25a309 309 0 00153 596 317 317 0 00258-316v-761h195c84 0 154-69 154-154s-70-154-154-154h-195c-84 0-154 69-154 154z"/>
    <path d="M3025 2373v660c-73-41-162-58-257-24a309 309 0 00153 596 317 317 0 00258-317v-760h195a155 155 0 000-309h-195c-84 0-154 69-154 154z"/>
    <path d="M3022 2371v660c-73-42-162-58-257-25a309 309 0 00153 596 317 317 0 00258-317v-760h195c84 0 154-69 154-154s-70-155-154-155h-195c-84 0-154 70-154 155z"/>
    <path d="M3019 2368v660c-73-42-162-58-257-25a309 309 0 00153 596 317 317 0 00258-316v-761h195c84 0 154-69 154-154s-70-154-154-154h-195c-85 0-154 69-154 154z"/>
    <path d="M3016 2365v660c-73-41-162-58-257-24a309 309 0 00153 596 317 317 0 00258-317v-760h195a155 155 0 000-309h-195c-85 0-154 70-154 154z"/>
    <path d="M3013 2363v660c-73-42-162-58-257-25a309 309 0 00153 596 317 317 0 00258-317v-760h194c85 0 155-69 155-154s-70-154-155-154h-194c-85 0-154 69-154 154z"/>
    <path d="M3010 2360v660c-73-42-162-58-257-25a309 309 0 00153 596 317 317 0 00258-316v-760h194a155 155 0 000-309h-194c-85 0-154 69-154 154z"/>
    <path d="M3007 2358v660c-73-42-162-58-257-25a309 309 0 00153 596 317 317 0 00258-317v-760h194c85 0 155-69 155-154s-70-155-155-155h-194c-85 0-154 70-154 155z"/>
    <path d="M3004 2355v660c-73-42-162-58-257-25a309 309 0 00153 596 317 317 0 00258-316v-761h194c85 0 155-69 155-154s-70-154-155-154h-194c-85 0-154 69-154 154z"/>
    <path d="M3001 2352v660c-73-41-162-58-257-24a309 309 0 00153 596 317 317 0 00258-317v-760h194a155 155 0 000-309h-194c-85 0-154 69-154 154z"/>
    <path d="M2998 2350v660c-73-42-162-58-257-25a309 309 0 00153 596 317 317 0 00258-317v-760h194c85 0 155-69 155-154s-70-155-155-155h-194c-85 0-154 70-154 155z"/>
    <path d="M2995 2347v660c-73-42-162-58-257-25a309 309 0 00153 596 317 317 0 00258-316v-760h194a155 155 0 000-309h-194c-85 0-154 69-154 154z"/>
    <path d="M2992 2345v659c-73-41-162-57-257-24a309 309 0 00153 596 317 317 0 00258-317v-760h194c85 0 155-70 155-154s-70-155-155-155h-194c-85 0-154 70-154 155z"/>
    <path d="M2989 2342v660c-73-42-162-58-257-25a309 309 0 00153 596 317 317 0 00258-317v-760h194c85 0 155-69 155-154s-70-154-155-154h-194c-85 0-154 69-154 154z"/>
    <path d="M2986 2339v660c-73-42-162-58-257-25a309 309 0 00153 596 317 317 0 00258-316v-760h194a155 155 0 000-309h-194c-85 0-154 69-154 154z"/>
    <path d="M2983 2337v660c-73-42-162-58-257-25a309 309 0 00153 596 317 317 0 00258-317v-760h194c85 0 155-69 155-154s-70-155-155-155h-194c-85 0-154 70-154 155z"/>
    <path d="M2980 2334v660c-73-42-162-58-257-25a309 309 0 00153 596 317 317 0 00258-316v-761h194c85 0 155-69 155-154s-70-154-155-154h-194c-85 0-154 69-154 154z"/>
    <path d="M2977 2331v660c-73-41-162-58-257-24a309 309 0 00153 596 317 317 0 00258-317v-760h194a155 155 0 000-309h-194c-85 0-154 70-154 154z"/>
    <path d="M2974 2329v660c-73-42-162-58-257-25a309 309 0 00153 596 317 317 0 00258-317v-760h194c85 0 155-69 155-154s-70-155-155-155h-194c-85 0-154 70-154 155z"/>
    <path d="M2971 2326v660c-73-42-162-58-257-25a309 309 0 00153 596 317 317 0 00258-316v-760h194a155 155 0 000-309h-194c-85 0-154 69-154 154z"/>
    <path d="M2968 2324v659c-73-41-162-57-257-24a309 309 0 00153 596 317 317 0 00258-317v-760h194c85 0 155-70 155-154s-70-155-155-155h-194c-85 0-154 70-154 155z"/>
    <path d="M2965 2321v660c-73-42-162-58-257-25a309 309 0 00153 596 317 317 0 00258-317v-760h194c85 0 155-69 155-154s-70-154-155-154h-194c-85 0-154 69-154 154z"/>
    <path d="M2962 2318v660c-73-41-163-58-257-25a309 309 0 00153 596 317 317 0 00258-316v-760h194a155 155 0 000-309h-194c-85 0-154 69-154 154z"/>
    <path d="M2959 2316v660c-73-42-163-58-257-25a309 309 0 00153 596 317 317 0 00258-317v-760h194c85 0 154-69 154-154s-69-155-154-155h-194c-85 0-154 70-154 155z"/>
    <path d="M2956 2313v660c-73-42-163-58-257-25a309 309 0 00153 596 317 317 0 00258-316v-761h194c85 0 154-69 154-154s-69-154-154-154h-194c-85 0-154 69-154 154z"/>
    <path d="M2953 2310v660c-73-41-163-58-257-24a309 309 0 00153 596 317 317 0 00258-317v-760h194a155 155 0 000-309h-194c-85 0-154 70-154 154z"/>
    <path d="M2950 2308v660c-73-42-163-58-257-25a309 309 0 00153 596 317 317 0 00258-317v-760h194c85 0 154-69 154-154s-69-155-154-155h-194c-85 0-154 70-154 155z"/>
    <path d="M2946 2305v660c-72-42-162-58-257-25a309 309 0 00153 596 317 317 0 00259-316v-760h194a155 155 0 000-309h-194c-85 0-155 69-155 154z"/>
    <path d="M2943 2303v659c-72-41-162-57-257-24a309 309 0 00153 596 317 317 0 00259-317v-760h194c85 0 154-70 154-154s-69-155-154-155h-194c-85 0-155 70-155 155z"/>
    <path d="M2940 2300v660c-72-42-162-58-257-25a309 309 0 00153 596 317 317 0 00259-316v-761h194c85 0 154-69 154-154s-69-154-154-154h-194c-85 0-155 69-155 154z"/>
    <path d="M2937 2297v660c-72-41-162-58-257-25a309 309 0 00153 596 317 317 0 00259-316v-760h194a155 155 0 000-309h-194c-85 0-155 69-155 154z"/>
    <path d="M2934 2295v660c-72-42-162-58-257-25a309 309 0 00153 596 317 317 0 00259-317v-760h194c85 0 154-69 154-154s-69-155-154-155h-194c-85 0-155 70-155 155z"/>
    <path d="M2931 2292v660c-72-42-162-58-257-25a309 309 0 00153 596 317 317 0 00259-316v-761h194c85 0 154-69 154-154s-69-154-154-154h-194c-85 0-155 69-155 154z"/>
    <path d="M2928 2289v660c-72-41-162-58-257-24a309 309 0 00153 596 317 317 0 00259-317v-760h194a155 155 0 000-309h-194c-85 0-155 70-155 154z"/>
    <path d="M2925 2287v660c-72-42-162-58-257-25a309 309 0 00153 596 317 317 0 00259-317v-760h194c85 0 154-69 154-154s-69-155-154-155h-194c-85 0-155 70-155 155z"/>
    <path d="M2922 2284v660c-72-42-162-58-257-25a309 309 0 00153 596 317 317 0 00259-316v-760h194a155 155 0 000-309h-194c-85 0-155 69-155 154z"/>
    <path d="M2919 2282v659c-72-41-162-57-257-24a309 309 0 00153 596 317 317 0 00259-317v-760h194c85 0 154-69 154-154s-69-155-154-155h-194c-85 0-155 70-155 155z"/>
    <path d="M2916 2279v660c-72-42-162-58-257-25a309 309 0 00153 596 317 317 0 00259-316v-761h194c85 0 154-69 154-154s-69-154-154-154h-194c-85 0-155 69-155 154z"/>
    <path d="M2913 2276v660c-72-41-162-58-257-24a309 309 0 00153 596 317 317 0 00259-317v-760h194a155 155 0 000-309h-194c-85 0-155 69-155 154z"/>
    <path d="M2910 2274v660c-72-42-162-58-257-25a309 309 0 00153 596 317 317 0 00259-317v-760h194c85 0 154-69 154-154s-69-155-154-155h-194c-85 0-155 70-155 155z"/>
    <path d="M2907 2271v660c-72-42-162-58-257-25a309 309 0 00153 596 317 317 0 00259-316v-761h194c85 0 154-69 154-154s-69-154-154-154h-194c-85 0-155 69-155 154z"/>
    <path d="M2904 2268v660c-72-41-162-58-257-24a309 309 0 00153 596 317 317 0 00259-317v-760h194a155 155 0 000-309h-194c-85 0-155 70-155 154z"/>
    <path d="M2901 2266v660c-72-42-162-58-257-25a309 309 0 00153 596 317 317 0 00259-317v-760h194c85 0 154-69 154-154s-69-155-154-155h-194c-85 0-155 70-155 155z"/>
    <path d="M2898 2263v660c-72-42-162-58-257-25a309 309 0 00153 596 317 317 0 00258-316l1-760h194a155 155 0 000-309h-194c-85 0-155 69-155 154z"/>
    <path d="M2895 2261v659c-72-41-162-57-257-24a309 309 0 00153 596 317 317 0 00258-317v-760h195c85 0 154-69 154-154s-69-155-154-155h-194c-85 0-155 70-155 155z"/>
    <path d="M2892 2258v660c-72-42-162-58-257-25a309 309 0 00153 596 317 317 0 00258-316v-761h195c85 0 154-69 154-154s-69-154-154-154h-195c-84 0-154 69-154 154z"/>
    <path d="M2889 2255v660c-72-41-162-58-257-24a309 309 0 00153 596 317 317 0 00258-317v-760h195a155 155 0 000-309h-195c-84 0-154 69-154 154z"/>
    <path d="M2886 2253v660c-72-42-162-58-257-25a309 309 0 00153 596 317 317 0 00258-317v-760h195c84 0 154-69 154-154s-70-155-154-155h-195c-84 0-154 70-154 155z"/>
    <path d="M2883 2250v660c-73-42-162-58-257-25a309 309 0 00153 596 317 317 0 00258-316v-761h195c84 0 154-69 154-154s-70-154-154-154h-195c-84 0-154 69-154 154z"/>
    <path d="M2880 2248v659c-73-41-162-57-257-24a309 309 0 00153 596 317 317 0 00258-317v-760h195c84 0 154-70 154-154s-70-155-154-155h-195c-84 0-154 70-154 155z"/>
    <path d="M2877 2245v660c-73-42-162-58-257-25a309 309 0 00153 596 317 317 0 00258-317v-760h195c84 0 154-69 154-154s-70-154-154-154h-195c-85 0-154 69-154 154z"/>
    <path d="M2874 2242v660c-73-42-162-58-257-25a309 309 0 00153 596 317 317 0 00258-316v-760h195a155 155 0 000-309h-195c-85 0-154 69-154 154z"/>
    <path d="M2871 2240v660c-73-42-162-58-257-25a309 309 0 00153 596 317 317 0 00258-317v-760h195c84 0 154-69 154-154s-70-155-154-155h-195c-85 0-154 70-154 155z"/>
    <path d="M2868 2237v660c-73-42-162-58-257-25a309 309 0 00153 596 317 317 0 00258-316v-761h194c85 0 155-69 155-154s-70-154-155-154h-194c-85 0-154 69-154 154z"/>
    <path d="M2865 2234v660c-73-41-162-58-257-24a309 309 0 00153 596 317 317 0 00258-317v-760h194a155 155 0 000-309h-194c-85 0-154 69-154 154z"/>
    <path d="M2862 2232v660c-73-42-162-58-257-25a309 309 0 00153 596 317 317 0 00258-317v-760h194c85 0 155-69 155-154s-70-155-155-155h-194c-85 0-154 70-154 155z"/>
    <path d="M2859 2229v660c-73-42-162-58-257-25a309 309 0 00153 596 317 317 0 00258-316v-760h194a155 155 0 000-309h-194c-85 0-154 69-154 154z"/>
    <path d="M2856 2227v659c-73-41-162-57-257-24a309 309 0 00153 596 317 317 0 00258-317v-760h194c85 0 155-70 155-154s-70-155-155-155h-194c-85 0-154 70-154 155z"/>
    <path d="M2853 2224v660c-73-42-162-58-257-25a309 309 0 00153 596 317 317 0 00258-317v-760h194c85 0 155-69 155-154s-70-154-155-154h-194c-85 0-154 69-154 154z"/>
    <path d="M2850 2221v660c-73-42-162-58-257-25a309 309 0 00153 596 317 317 0 00258-316v-760h194a155 155 0 000-309h-194c-85 0-154 69-154 154z"/>
    <path d="M2847 2219v660c-73-42-162-58-257-25a309 309 0 00153 596 317 317 0 00258-317v-760h194c85 0 155-69 155-154s-70-155-155-155h-194c-85 0-154 70-154 155z"/>
    <path d="M2844 2216v660c-73-42-162-58-257-25a309 309 0 00153 596 317 317 0 00258-316v-761h194c85 0 155-69 155-154s-70-154-155-154h-194c-85 0-154 69-154 154z"/>
    <path d="M2841 2213v660c-73-41-162-58-257-24a309 309 0 00153 596 317 317 0 00258-317v-760h194a155 155 0 000-309h-194c-85 0-154 70-154 154z"/>
    <path d="M2838 2211v660c-73-42-162-58-257-25a309 309 0 00153 596 317 317 0 00258-317v-760h194c85 0 155-69 155-154s-70-155-155-155h-194c-85 0-154 70-154 155z"/>
    <path d="M2835 2208v660c-73-42-162-58-257-25a309 309 0 00153 596 317 317 0 00258-316v-760h194a155 155 0 000-309h-194c-85 0-154 69-154 154z"/>
    <path d="M2832 2206v659c-73-41-162-57-257-24a309 309 0 00153 596 317 317 0 00258-317v-760h194c85 0 155-70 155-154s-70-155-155-155h-194c-85 0-154 70-154 155z"/>
    <path d="M2829 2203v660c-73-42-162-58-257-25a309 309 0 00153 596 317 317 0 00258-316v-761h194c85 0 155-69 155-154s-70-154-155-154h-194c-85 0-154 69-154 154z"/>
    <path d="M2826 2200v660c-73-41-162-58-257-25a309 309 0 00153 596 317 317 0 00258-316v-760h194a155 155 0 000-309h-194c-85 0-154 69-154 154z"/>
    <path d="M2823 2198v660c-73-42-162-58-257-25a309 309 0 00153 596 317 317 0 00258-317v-760h194c85 0 154-69 154-154s-69-155-154-155h-194c-85 0-154 70-154 155z"/>
    <path d="M2820 2195v660c-73-42-162-58-257-25a309 309 0 00153 596 317 317 0 00258-316v-761h194c85 0 154-69 154-154s-69-154-154-154h-194c-85 0-154 69-154 154z"/>
    <path d="M2817 2192v660c-73-41-163-58-257-24a309 309 0 00153 596 317 317 0 00258-317v-760h194a155 155 0 000-309h-194c-85 0-154 70-154 154z"/>
    <path d="M2814 2190v660c-73-42-163-58-257-25a309 309 0 00153 596 317 317 0 00258-317v-760h194c85 0 154-69 154-154s-69-155-154-155h-194c-85 0-154 70-154 155z"/>
    <path d="M2811 2187v660c-73-42-163-58-257-25a309 309 0 00153 596 317 317 0 00258-316v-760h194a155 155 0 000-309h-194c-85 0-154 69-154 154z"/>
    <path d="M2808 2185v659c-73-41-163-57-257-24a309 309 0 00153 596 317 317 0 00258-317v-760h194c85 0 154-70 154-154s-69-155-154-155h-194c-85 0-154 70-154 155z"/>
    <path d="M2804 2182v660c-72-42-162-58-257-25a309 309 0 00153 596 317 317 0 00259-316v-761h194c85 0 154-69 154-154s-69-154-154-154h-194c-85 0-155 69-155 154z"/>
    <path d="M2801 2179v660c-72-41-162-58-257-24a309 309 0 00153 596 317 317 0 00259-317v-760h194a155 155 0 000-309h-194c-85 0-155 69-155 154z"/>
    <path d="M2798 2177v660c-72-42-162-58-257-25a309 309 0 00153 596 317 317 0 00259-317v-760h194c85 0 154-69 154-154s-69-155-154-155h-194c-85 0-155 70-155 155z"/>
    <path d="M2795 2174v660c-72-42-162-58-257-25a309 309 0 00153 596 317 317 0 00259-316v-761h194c85 0 154-69 154-154s-69-154-154-154h-194c-85 0-155 69-155 154z"/>
    <path d="M2792 2171v660c-72-41-162-58-257-24a309 309 0 00153 596 317 317 0 00259-317v-760h194a155 155 0 000-309h-194c-85 0-155 70-155 154z"/>
    <path d="M2789 2169v660c-72-42-162-58-257-25a309 309 0 00153 596 317 317 0 00259-317v-760h194c85 0 154-69 154-154s-69-155-154-155h-194c-85 0-155 70-155 155z"/>
    <path d="M2786 2166v660c-72-42-162-58-257-25a309 309 0 00153 596 317 317 0 00259-316v-760h194a155 155 0 000-309h-194c-85 0-155 69-155 154z"/>
    <path d="M2783 2164v659c-72-41-162-57-257-24a309 309 0 00153 596 317 317 0 00259-317v-760h194c85 0 154-69 154-154s-69-155-154-155h-194c-85 0-155 70-155 155z"/>
    <path d="M2780 2161v660c-72-42-162-58-257-25a309 309 0 00153 596 317 317 0 00259-316v-761h194c85 0 154-69 154-154s-69-154-154-154h-194c-85 0-155 69-155 154z"/>
    <path d="M2777 2158v660c-72-41-162-58-257-24a309 309 0 00153 596 317 317 0 00259-317v-760h194a155 155 0 000-309h-194c-85 0-155 69-155 154z"/>
    <path d="M2774 2156v660c-72-42-162-58-257-25a309 309 0 00153 596 317 317 0 00259-317v-760h194c85 0 154-69 154-154s-69-155-154-155h-194c-85 0-155 70-155 155z"/>
    <path d="M2771 2153v660c-72-42-162-58-257-25a309 309 0 00153 596 317 317 0 00259-316v-761h194c85 0 154-69 154-154s-69-154-154-154h-194c-85 0-155 69-155 154z"/>
    <path d="M2768 2150v660c-72-41-162-58-257-24a309 309 0 00153 596 317 317 0 00259-317v-760h194a155 155 0 000-309h-194c-85 0-155 70-155 154z"/>
    <path d="M2765 2148v660c-72-42-162-58-257-25a309 309 0 00153 596 317 317 0 00259-317v-760h194c85 0 154-69 154-154s-69-155-154-155h-194c-85 1-155 70-155 155z"/>
    <path d="M2762 2145v660c-72-42-162-58-257-25a309 309 0 00153 596 317 317 0 00259-316v-760h194a155 155 0 000-309h-194c-85 0-155 69-155 154z"/>
    <path d="M2759 2143v660c-72-42-162-58-257-25a309 309 0 00153 596 317 317 0 00259-317v-760h194c85 0 154-69 154-154s-69-155-154-155h-194c-85 0-155 70-155 155z"/>
    <path d="M2756 2140v660c-72-42-162-58-257-25a309 309 0 00153 596 317 317 0 00259-316v-761h194c85 0 154-69 154-154s-69-154-154-154h-194c-85 0-155 69-155 154z"/>
    <path d="M2753 2137v660c-72-41-162-58-257-24a309 309 0 00153 596 317 317 0 00258-317v-760h195a155 155 0 000-309h-194c-85 0-155 69-155 154z"/>
    <path d="M2750 2135v660c-72-42-162-58-257-25a309 309 0 00153 596 317 317 0 00258-317v-760h195c85 0 154-69 154-154s-69-155-154-155h-194c-85 0-155 70-155 155z"/>
    <path d="M2747 2132v660c-72-42-162-58-257-25a309 309 0 00153 596 317 317 0 00258-316v-761h195c84 0 154-69 154-154s-69-154-154-154h-195c-84 0-154 69-154 154z"/>
    <path d="M2744 2130v659c-72-41-162-57-257-24a309 309 0 00153 596 317 317 0 00258-317v-760h195c84 0 154-70 154-154s-70-155-154-155h-195c-84 0-154 70-154 155z"/>
    <path d="M2741 2127v660c-73-42-162-58-257-25a309 309 0 00153 596 317 317 0 00258-317v-760h195c84 0 154-69 154-154s-70-154-154-154h-195c-84 0-154 69-154 154z"/>
    <path d="M2738 2124v660c-73-42-162-58-257-25a309 309 0 00153 596 317 317 0 00258-316v-760h195a155 155 0 000-309h-195c-84 0-154 69-154 154z"/>
    <path d="M2735 2122v660c-73-42-162-58-257-25a309 309 0 00153 596 317 317 0 00258-317v-760h195c84 0 154-69 154-154s-70-155-154-155h-195c-85 0-154 70-154 155z"/>
    <path d="M2732 2119v660c-73-42-162-58-257-25a309 309 0 00153 596 317 317 0 00258-316v-761h194c85 0 155-69 155-154s-70-154-155-154h-194c-85 0-154 69-154 154z"/>
    <path d="M2729 2116v660c-73-41-162-58-257-24a309 309 0 00153 596 317 317 0 00258-317v-760h194a155 155 0 000-309h-194c-85 0-154 70-154 154z"/>
    <path d="M2726 2114v660c-73-42-162-58-257-25a309 309 0 00153 596 317 317 0 00258-317v-760h194c85 0 155-69 155-154s-70-155-155-155h-194c-85 0-154 70-154 155z"/>
    <path d="M2723 2111v660c-73-42-162-58-257-25a309 309 0 00153 596 317 317 0 00258-316v-760h194a155 155 0 000-309h-194c-85 0-154 69-154 154z"/>
    <path d="M2720 2109v659c-73-41-162-57-257-24a309 309 0 00153 596 317 317 0 00258-317v-760h194c85 0 155-70 155-154s-70-155-155-155h-194c-85 0-154 70-154 155z"/>
    <path d="M2717 2106v660c-73-42-162-58-257-25a309 309 0 00153 596 317 317 0 00258-317v-760h194c85 0 155-69 155-154s-70-154-155-154h-194c-85 0-154 69-154 154z"/>
    <path d="M2714 2103v660c-73-41-162-58-257-25a309 309 0 00153 596 317 317 0 00258-316v-760h194a155 155 0 000-309h-194c-85 0-154 69-154 154z"/>
    <path d="M2711 2101v660c-73-42-162-58-257-25a309 309 0 00153 596 317 317 0 00258-317v-760h194c85 0 155-69 155-154s-70-155-155-155h-194c-85 0-154 70-154 155z"/>
    <path d="M2708 2098v660c-73-42-162-58-257-25a309 309 0 00153 596 317 317 0 00258-316v-761h194c85 0 155-69 155-154s-70-154-155-154h-194c-85 0-154 69-154 154z"/>
    <path d="M2705 2095v660c-73-41-162-58-257-24a309 309 0 00153 596 317 317 0 00258-317v-760h194a155 155 0 000-309h-194c-85 0-154 70-154 154z"/>
    <path d="M2702 2093v660c-73-42-162-58-257-25a309 309 0 00153 596 317 317 0 00258-317v-760h194c85 0 155-69 155-154s-70-155-155-155h-194c-85 0-154 70-154 155z"/>
    <path d="M2699 2090v660c-73-42-162-58-257-25a309 309 0 00153 596 317 317 0 00258-316v-760h194a155 155 0 000-309h-194c-85 0-154 69-154 154z"/>
    <path d="M2696 2088v659c-73-41-162-57-257-24a309 309 0 00153 596 317 317 0 00258-317v-760h194c85 0 155-70 155-154s-70-155-155-155h-194c-85 0-154 70-154 155z"/>
    <path d="M2693 2085v660c-73-42-162-58-257-25a309 309 0 00153 596 317 317 0 00258-316v-761h194c85 0 155-69 155-154s-70-154-155-154h-194c-85 0-154 69-154 154z"/>
    <path d="M2690 2082v660c-73-41-162-58-257-25a309 309 0 00153 596 317 317 0 00258-316v-760h194a155 155 0 000-309h-194c-85 0-154 69-154 154z"/>
    <path d="M2687 2080v660c-73-42-162-58-257-25a309 309 0 00153 596 317 317 0 00258-317v-760h194c85 0 155-69 155-154s-70-155-155-155h-194c-85 0-154 70-154 155z"/>
    <path d="M2684 2077v660c-73-42-162-58-257-25a309 309 0 00153 596 317 317 0 00258-316v-761h194c85 0 155-69 155-154s-70-154-155-154h-194c-85 0-154 69-154 154z"/>
    <path d="M2681 2074v660c-73-41-162-58-257-24a309 309 0 00153 596 317 317 0 00258-317v-760h194a155 155 0 000-309h-194c-85 0-154 70-154 154z"/>
    <path d="M2678 2072v660c-73-42-162-58-257-25a309 309 0 00153 596 317 317 0 00258-317v-760h194c85 0 155-69 155-154s-70-155-155-155h-194c-85 0-154 70-154 155z"/>
    <path d="M2675 2069v660c-73-42-163-58-257-25a309 309 0 00153 596 317 317 0 00258-316v-760h194a155 155 0 000-309h-194c-85 0-154 69-154 154z"/>
    <path d="M2672 2067v659c-73-41-163-57-257-24a309 309 0 00153 596 317 317 0 00258-317v-760h194c85 0 154-70 154-154s-69-155-154-155h-194c-85 0-154 70-154 155z"/>
    <path d="M2669 2064v660c-73-42-163-58-257-25a309 309 0 00153 596 317 317 0 00258-316v-761h194c85 0 154-69 154-154s-69-154-154-154h-194c-85 0-154 69-154 154z"/>
    <path d="M2666 2061v660c-73-41-163-58-257-24a309 309 0 00153 596 317 317 0 00258-317v-760h194a155 155 0 000-309h-194c-85 0-154 69-154 154z"/>
    <path d="M2662 2059v660c-72-42-162-58-257-25a309 309 0 00153 596 317 317 0 00259-317v-760h194c85 0 154-69 154-154s-69-155-154-155h-194c-85 0-155 70-155 155z"/>
    <path d="M2659 2056v660c-72-42-162-58-257-25a309 309 0 00153 596 317 317 0 00259-316v-761h194c85 0 154-69 154-154s-69-154-154-154h-194c-85 0-155 69-155 154z"/>
    <path d="M2656 2053v660c-72-41-162-58-257-24a309 309 0 00153 596 317 317 0 00259-317v-760h194a155 155 0 000-309h-194c-85 0-155 70-155 154z"/>
    <path d="M2653 2051v660c-72-42-162-58-257-25a309 309 0 00153 596 317 317 0 00259-317v-760h194c85 0 154-69 154-154s-69-155-154-155h-194c-85 0-155 70-155 155z"/>
    <path d="M2650 2048v660c-72-42-162-58-257-25a309 309 0 00153 596 317 317 0 00259-316v-760h194a155 155 0 000-309h-194c-85 0-155 69-155 154z"/>
    <path d="M2647 2046v659c-72-41-162-57-257-24a309 309 0 00153 596 317 317 0 00259-317v-760h194c85 0 154-69 154-154s-69-155-154-155h-194c-85 0-155 70-155 155z"/>
    <path d="M2644 2043v660c-72-42-162-58-257-25a309 309 0 00153 596 317 317 0 00259-316v-761h194c85 0 154-69 154-154s-69-154-154-154h-194c-85 0-155 69-155 154z"/>
    <path d="M2641 2040v660c-72-41-162-58-257-24a309 309 0 00153 596 317 317 0 00259-317v-760h194a155 155 0 000-309h-194c-85 0-155 69-155 154z"/>
    <path d="M2638 2038v660c-72-42-162-58-257-25a309 309 0 00153 596 317 317 0 00259-317v-760h194c85 0 154-69 154-154s-69-155-154-155h-194c-85 0-155 70-155 155z"/>
    <path d="M2635 2035v660c-72-42-162-58-257-25a309 309 0 00153 596 317 317 0 00259-316v-761h194c85 0 154-69 154-154s-69-154-154-154h-194c-85 0-155 69-155 154z"/>
    <path d="M2632 2033v659c-72-41-162-57-257-24a309 309 0 00153 596 317 317 0 00259-317v-760h194c85 0 154-70 154-154s-69-155-154-155h-194c-85 0-155 70-155 155z"/>
    <path d="M2629 2030v660c-72-42-162-58-257-25a309 309 0 00153 596 317 317 0 00259-317v-760h194c85 0 154-69 154-154s-69-154-154-154h-194c-85 0-155 69-155 154z"/>
    <path d="M2626 2027v660c-72-42-162-58-257-25a309 309 0 00153 596 317 317 0 00259-316v-760h194a155 155 0 000-309h-194c-85 0-155 69-155 154z"/>
    <path d="M2623 2025v660c-72-42-162-58-257-25a309 309 0 00153 596 317 317 0 00259-317v-760h194c85 0 154-69 154-154s-69-155-154-155h-194c-85 0-155 70-155 155z"/>
    <path d="M2620 2022v660c-72-42-162-58-257-25a309 309 0 00153 596 317 317 0 00259-316v-761h194c85 0 154-69 154-154s-69-154-154-154h-194c-85 0-155 69-155 154z"/>
    <path d="M2617 2019v660c-72-41-162-58-257-24a309 309 0 00153 596 317 317 0 00259-317v-760h194a155 155 0 000-309h-194c-85 0-155 69-155 154z"/>
    <path d="M2614 2017v660c-72-42-162-58-257-25a309 309 0 00153 596 317 317 0 00259-317v-760h194c85 0 154-69 154-154s-69-155-154-155h-194c-85 0-155 70-155 155z"/>
    <path d="M2611 2014v660c-72-42-162-58-257-25a309 309 0 00153 596 317 317 0 00258-316v-760h195a155 155 0 000-309h-194c-85 0-155 69-155 154z"/>
    <path d="M2608 2012v659c-72-41-162-57-257-24a309 309 0 00153 596 317 317 0 00258-317v-760h195c85 0 154-70 154-154s-69-155-154-155h-194c-85 0-155 70-155 155z"/>
    <path d="M2605 2009v660c-72-42-162-58-257-25a309 309 0 00153 596 317 317 0 00258-317v-760h195c84 0 154-69 154-154s-69-154-154-154h-195c-84 0-154 69-154 154z"/>
    <path d="M2602 2006v660c-72-42-162-58-257-25a309 309 0 00153 596 317 317 0 00258-316v-760h195a155 155 0 000-309h-195c-84 0-154 69-154 154z"/>
    <path d="M2599 2004v660c-73-42-162-58-257-25a309 309 0 00153 596 317 317 0 00258-317v-760h195c84 0 154-69 154-154s-70-155-154-155h-195c-84 0-154 70-154 155z"/>
    <path d="M2596 2001v660c-73-42-162-58-257-25a309 309 0 00153 596 317 317 0 00258-316v-761h195c84 0 154-69 154-154s-70-154-154-154h-195c-84 0-154 69-154 154z"/>
    <path d="M2593 1998v660c-73-41-162-58-257-24a309 309 0 00153 596 317 317 0 00258-317v-760h195a155 155 0 000-309h-195c-84 0-154 70-154 154z"/>
    <path d="M2590 1996v660c-73-42-162-58-257-25a309 309 0 00153 596 317 317 0 00258-317v-760h195c84 0 154-69 154-154s-70-155-154-155h-195c-85 0-154 70-154 155z"/>
    <path d="M2587 1993v660c-73-42-162-58-257-25a309 309 0 00153 596 317 317 0 00258-316v-760h195a155 155 0 000-309h-195c-85 0-154 69-154 154z"/>
    <path d="M2584 1991v659c-73-41-162-57-257-24a309 309 0 00153 596 317 317 0 00258-317v-760h194c85 0 155-70 155-154s-70-155-155-155h-194c-85 0-154 70-154 155z"/>
    <path d="M2581 1988v660c-73-42-162-58-257-25a309 309 0 00153 596 317 317 0 00258-317v-760h194c85 0 155-69 155-154s-70-154-155-154h-194c-85 0-154 69-154 154z"/>
    <path d="M2578 1985v660c-73-41-162-58-257-25a309 309 0 00153 596 317 317 0 00258-316v-760h194a155 155 0 000-309h-194c-85 0-154 69-154 154z"/>
    <path d="M2575 1983v660c-73-42-162-58-257-25a309 309 0 00153 596 317 317 0 00258-317v-760h194c85 0 155-69 155-154s-70-155-155-155h-194c-85 0-154 70-154 155z"/>
    <path d="M2572 1980v660c-73-42-162-58-257-25a309 309 0 00153 596 317 317 0 00258-316v-761h194c85 0 155-69 155-154s-70-154-155-154h-194c-85 0-154 69-154 154z"/>
    <path d="M2569 1977v660c-73-41-162-58-257-24a309 309 0 00153 596 317 317 0 00258-317v-760h194a155 155 0 000-309h-194c-85 0-154 70-154 154z"/>
    <path d="M2566 1975v660c-73-42-162-58-257-25a309 309 0 00153 596 317 317 0 00258-317v-760h194c85 0 155-69 155-154s-70-155-155-155h-194c-85 0-154 70-154 155z"/>
    <path d="M2563 1972v660c-73-42-162-58-257-25a309 309 0 00153 596 317 317 0 00258-316v-760h194a155 155 0 000-309h-194c-85 0-154 69-154 154z"/>
    <path d="M2560 1970v659c-73-41-162-57-257-24a309 309 0 00153 596 317 317 0 00258-317v-760h194c85 0 155-70 155-154s-70-155-155-155h-194c-85 0-154 70-154 155z"/>
    <path d="M2557 1967v660c-73-42-162-58-257-25a309 309 0 00153 596 317 317 0 00258-316v-761h194c85 0 155-69 155-154s-70-154-155-154h-194c-85 0-154 69-154 154z"/>
    <path d="M2554 1964v660c-73-41-162-58-257-25a309 309 0 00153 596 317 317 0 00258-316v-760h194a155 155 0 000-309h-194c-85 0-154 69-154 154z"/>
    <path d="M2551 1962v660c-73-42-162-58-257-25a309 309 0 00153 596 317 317 0 00258-317v-760h194c85 0 155-69 155-154s-70-155-155-155h-194c-85 0-154 70-154 155z"/>
    <path d="M2548 1959v660c-73-42-162-58-257-25a309 309 0 00153 596 317 317 0 00258-316v-761h194c85 0 155-69 155-154s-70-154-155-154h-194c-85 0-154 69-154 154z"/>
    <path d="M2545 1956v660c-73-41-162-58-257-24a309 309 0 00153 596 317 317 0 00258-317v-760h194a155 155 0 000-309h-194c-85 0-154 70-154 154z"/>
    <path d="M2542 1954v660c-73-42-162-58-257-25a309 309 0 00153 596 317 317 0 00258-317v-760h194c85 0 155-69 155-154s-70-155-155-155h-194c-85 0-154 70-154 155z"/>
    <path d="M2539 1951v660c-73-42-162-58-257-25a309 309 0 00153 596 317 317 0 00258-316v-760h194a155 155 0 000-309h-194c-85 0-154 69-154 154z"/>
    <path d="M2536 1949v659c-73-41-162-57-257-24a309 309 0 00153 596 317 317 0 00258-317v-760h194c85 0 154-69 154-154s-69-155-154-155h-194c-85 0-154 70-154 155z"/>
    <path d="M2533 1946v660c-73-42-163-58-257-25a309 309 0 00153 596 317 317 0 00258-316v-761h194c85 0 154-69 154-154s-69-154-154-154h-194c-85 0-154 69-154 154z"/>
    <path d="M2530 1943v660c-73-41-163-58-257-24a309 309 0 00153 596 317 317 0 00258-317v-760h194a155 155 0 000-309h-194c-85 0-154 69-154 154z"/>
    <path d="M2527 1941v660c-73-42-163-58-257-25a309 309 0 00153 596 317 317 0 00258-317v-760h194c85 0 154-69 154-154s-69-155-154-155h-194c-85 0-154 70-154 155z"/>
    <path d="M2524 1938v660c-73-42-163-58-257-25a309 309 0 00153 596 317 317 0 00258-316v-761h194c85 0 154-69 154-154s-69-154-154-154h-194c-85 0-154 69-154 154z"/>
    <path d="M2520 1935v660c-72-41-162-58-257-24a309 309 0 00153 596 317 317 0 00259-317v-760h194a155 155 0 000-309h-194c-85 0-155 70-155 154z"/>
    <path d="M2517 1933v660c-72-42-162-58-257-25a309 309 0 00153 596 317 317 0 00259-317v-760h194c85 0 154-69 154-154s-69-154-154-154h-194c-85 0-155 69-155 154z"/>
    <path d="M2514 1930v660c-72-42-162-58-257-25a309 309 0 00153 596 317 317 0 00259-316v-760h194a155 155 0 000-309h-194c-85 0-155 69-155 154z"/>
    <path d="M2511 1928v660c-72-42-162-58-257-25a309 309 0 00153 596 317 317 0 00259-317v-760h194c85 0 154-69 154-154s-69-155-154-155h-194c-85 0-155 70-155 155z"/>
    <path d="M2508 1925v660c-72-42-162-58-257-25a309 309 0 00153 596 317 317 0 00259-316v-761h194c85 0 154-69 154-154s-69-154-154-154h-194c-85 0-155 69-155 154z"/>
    <path d="M2505 1922v660c-72-41-162-58-257-24a309 309 0 00153 596 317 317 0 00259-317v-760h194a155 155 0 000-309h-194c-85 0-155 69-155 154z"/>
    <path d="M2502 1920v660c-72-42-162-58-257-25a309 309 0 00153 596 317 317 0 00259-317v-760h194c85 0 154-69 154-154s-69-155-154-155h-194c-85 0-155 70-155 155z"/>
    <path d="M2499 1917v660c-72-42-162-58-257-25a309 309 0 00153 596 317 317 0 00259-316v-761h194c85 0 154-69 154-154s-69-154-154-154h-194c-85 0-155 69-155 154z"/>
    <path d="M2496 1915v659c-72-41-162-57-257-24a309 309 0 00153 596 317 317 0 00259-317v-760h194c85 0 154-70 154-154s-69-155-154-155h-194c-85 0-155 70-155 155z"/>
    <path d="M2493 1912v660c-72-42-162-58-257-25a309 309 0 00153 596 317 317 0 00259-317v-760h194c85 0 154-69 154-154s-69-154-154-154h-194c-85 0-155 69-155 154z"/>
    <path d="M2490 1909v660c-72-42-162-58-257-25a309 309 0 00153 596 317 317 0 00259-316v-760h194a155 155 0 000-309h-194c-85 0-155 69-155 154z"/>
    <path d="M2487 1907v660c-72-42-162-58-257-25a309 309 0 00153 596 317 317 0 00259-317v-760h194c85 0 154-69 154-154s-69-155-154-155h-194c-85 0-155 70-155 155z"/>
    <path d="M2484 1904v660c-72-42-162-58-257-25a309 309 0 00153 596 317 317 0 00259-316v-761h194c85 0 154-69 154-154s-69-154-154-154h-194c-85 0-155 69-155 154z"/>
    <path d="M2481 1901v660c-72-41-162-58-257-24a309 309 0 00153 596 317 317 0 00259-317v-760h194a155 155 0 000-309h-194c-85 0-155 70-155 154z"/>
    <path d="M2478 1899v660c-72-42-162-58-257-25a309 309 0 00153 596 317 317 0 00259-317v-760h194c85 0 154-69 154-154s-69-155-154-155h-194c-85 0-155 70-155 155z"/>
    <path d="M2475 1896v660c-72-42-162-58-257-25a309 309 0 00153 596 317 317 0 00259-316v-760h194a155 155 0 000-309h-194c-85 0-155 69-155 154z"/>
    <path d="M2472 1894v659c-72-41-162-57-257-24a309 309 0 00153 596 317 317 0 00259-317v-760h194c85 0 154-70 154-154s-69-155-154-155h-194c-85 0-155 70-155 155z"/>
    <path d="M2469 1891v660c-72-42-162-58-257-25a309 309 0 00153 596 317 317 0 00258-317v-760h195c85 0 154-69 154-154s-69-154-154-154h-194c-85 0-155 69-155 154z"/>
    <path d="M2466 1888v660c-72-41-162-58-257-25a309 309 0 00153 596 317 317 0 00258-316v-760h195a155 155 0 000-309h-194c-85 0-155 69-155 154z"/>
    <path d="M2463 1886v660c-72-42-162-58-257-25a309 309 0 00153 596 317 317 0 00258-317v-760h195c85 0 154-69 154-154s-69-155-154-155h-195c-84 0-154 70-154 155z"/>
    <path d="M2460 1883v660c-72-42-162-58-257-25a309 309 0 00153 596 317 317 0 00258-316v-761h195c84 0 154-69 154-154s-70-154-154-154h-195c-84 0-154 69-154 154z"/>
    <path d="M2457 1880v660c-73-41-162-58-257-24a309 309 0 00153 596 317 317 0 00258-317v-760h195a155 155 0 000-309h-195c-84 0-154 70-154 154z"/>
    <path d="M2454 1878v660c-73-42-162-58-257-25a309 309 0 00153 596 317 317 0 00258-317v-760h195c84 0 154-69 154-154s-70-155-154-155h-195c-84 0-154 70-154 155z"/>
    <path d="M2451 1875v660c-73-42-162-58-257-25a309 309 0 00153 596 317 317 0 00258-316v-760h195a155 155 0 000-309h-195c-84 0-154 69-154 154z"/>
    <path d="M2448 1873v659c-73-41-162-57-257-24a309 309 0 00153 596 317 317 0 00258-317v-760h195c84 0 154-70 154-154s-70-155-154-155h-195c-85 0-154 70-154 155z"/>
    <path d="M2445 1870v660c-73-42-162-58-257-25a309 309 0 00153 596 317 317 0 00258-316v-761h194c85 0 155-69 155-154s-70-154-155-154h-194c-85 0-154 69-154 154z"/>
    <path d="M2442 1867v660c-73-41-162-58-257-25a309 309 0 00153 596 317 317 0 00258-316v-760h194a155 155 0 000-309h-194c-85 0-154 69-154 154z"/>
    <path d="M2439 1865v660c-73-42-162-58-257-25a309 309 0 00153 596 317 317 0 00258-317v-760h194c85 0 155-69 155-154s-70-155-155-155h-194c-85 0-154 70-154 155z"/>
    <path d="M2436 1862v660c-73-42-162-58-257-25a309 309 0 00153 596 317 317 0 00258-316v-761h194c85 0 155-69 155-154s-70-154-155-154h-194c-85 0-154 69-154 154z"/>
    <path d="M2433 1859v660c-73-41-162-58-257-24a309 309 0 00153 596 317 317 0 00258-317v-760h194a155 155 0 000-309h-194c-85 0-154 70-154 154z"/>
    <path d="M2430 1857v660c-73-42-162-58-257-25a309 309 0 00153 596 317 317 0 00258-317v-760h194c85 0 155-69 155-154s-70-155-155-155h-194c-85 0-154 70-154 155z"/>
    <path d="M2427 1854v660c-73-42-162-58-257-25a309 309 0 00153 596 317 317 0 00258-316v-760h194a155 155 0 000-309h-194c-85 0-154 69-154 154z"/>
    <path d="M2424 1852v659c-73-41-162-57-257-24a309 309 0 00153 596 317 317 0 00258-317v-760h194c85 0 155-70 155-154s-70-155-155-155h-194c-85 0-154 70-154 155z"/>
    <path d="M2421 1849v660c-73-42-162-58-257-25a309 309 0 00153 596 317 317 0 00258-316v-761h194c85 0 155-69 155-154s-70-154-155-154h-194c-85 0-154 69-154 154z"/>
    <path d="M2418 1846v660c-73-41-162-58-257-24a309 309 0 00153 596 317 317 0 00258-317v-760h194a155 155 0 000-309h-194c-85 0-154 69-154 154z"/>
    <path d="M2415 1844v660c-73-42-162-58-257-25a309 309 0 00153 596 317 317 0 00258-317v-760h194c85 0 155-69 155-154s-70-155-155-155h-194c-85 0-154 70-154 155z"/>
    <path d="M2412 1841v660c-73-42-162-58-257-25a309 309 0 00153 596 317 317 0 00258-316v-761h194c85 0 155-69 155-154s-70-154-155-154h-194c-85 0-154 69-154 154z"/>
    <path d="M2409 1838v660c-73-41-162-58-257-24a309 309 0 00153 596 317 317 0 00258-317v-760h194a155 155 0 000-309h-194c-85 0-154 70-154 154z"/>
    <path d="M2406 1836v660c-73-42-162-58-257-25a309 309 0 00153 596 317 317 0 00258-317v-760h194c85 0 155-69 155-154s-70-155-155-155h-194c-85 0-154 70-154 155z"/>
    <path d="M2403 1833v660c-73-42-162-58-257-25a309 309 0 00153 596 317 317 0 00258-316v-760h194a155 155 0 000-309h-194c-85 0-154 69-154 154z"/>
    <path d="M2400 1831v659c-73-41-162-57-257-24a309 309 0 00153 596 317 317 0 00258-317v-760h194c85 0 155-69 155-154s-70-155-155-155h-194c-85 0-154 70-154 155z"/>
    <path d="M2397 1828v660c-73-42-162-58-257-25a309 309 0 00153 596 317 317 0 00258-316v-761h194c85 0 155-69 155-154s-70-154-155-154h-194c-85 0-154 69-154 154z"/>
    <path d="M2394 1825v660c-73-41-162-58-257-24a309 309 0 00153 596 317 317 0 00258-317v-760h194a155 155 0 000-309h-194c-85 0-154 69-154 154z"/>
    <path d="M2391 1823v660c-73-42-163-58-257-25a309 309 0 00153 596 317 317 0 00258-317v-760h194c85 0 154-69 154-154s-69-155-154-155h-194c-85 0-154 70-154 155z"/>
    <path d="M2388 1820v660c-73-42-163-58-257-25a309 309 0 00153 596 317 317 0 00258-316v-761h194c85 0 154-69 154-154s-69-154-154-154h-194c-85 0-154 69-154 154z"/>
    <path d="M2385 1817v660c-73-41-163-58-257-24a309 309 0 00153 596 317 317 0 00258-317v-760h194a155 155 0 000-309h-194c-85 0-154 70-154 154z"/>
    <path d="M2382 1815v660c-73-42-163-58-257-25a309 309 0 00153 596 317 317 0 00258-317v-760h194c85 0 154-69 154-154s-69-154-154-154h-194c-85 0-154 69-154 154z"/>
    <path d="M2378 1812v660c-72-42-162-58-257-25a309 309 0 00153 596 317 317 0 00259-316v-760h194a155 155 0 000-309h-194c-85 0-155 69-155 154z"/>
    <path d="M2375 1810v660c-72-42-162-58-257-25a309 309 0 00153 596 317 317 0 00259-317v-760h194c85 0 154-69 154-154s-69-155-154-155h-194c-85 0-155 70-155 155z"/>
    <path d="M2372 1807v660c-72-42-162-58-257-25a309 309 0 00153 596 317 317 0 00259-316v-761h194c85 0 154-69 154-154s-69-154-154-154h-194c-85 0-155 69-155 154z"/>
    <path d="M2369 1804v660c-72-41-162-58-257-24a309 309 0 00153 596 317 317 0 00259-317v-760h194a155 155 0 000-309h-194c-85 0-155 69-155 154z"/>
    <path d="M2366 1802v660c-72-42-162-58-257-25a309 309 0 00153 596 317 317 0 00259-317v-760h194c85 0 154-69 154-154s-69-155-154-155h-194c-85 0-155 70-155 155z"/>
    <path d="M2363 1799v660c-72-42-162-58-257-25a309 309 0 00153 596 317 317 0 00259-316v-760h194a155 155 0 000-309h-194c-85 0-155 69-155 154z"/>
    <path d="M2360 1797v659c-72-41-162-57-257-24a309 309 0 00153 596 317 317 0 00259-317v-760h194c85 0 154-70 154-154s-69-155-154-155h-194c-85 0-155 70-155 155z"/>
    <path d="M2357 1794v660c-72-42-162-58-257-25a309 309 0 00153 596 317 317 0 00259-317v-760h194c85 0 154-69 154-154s-69-154-154-154h-194c-85 0-155 69-155 154z"/>
    <path d="M2354 1791v660c-72-42-162-58-257-25a309 309 0 00153 596 317 317 0 00259-316v-760h194a155 155 0 000-309h-194c-85 0-155 69-155 154z"/>
    <path d="M2351 1789v660c-72-42-162-58-257-25a309 309 0 00153 596 317 317 0 00259-317v-760h194c85 0 154-69 154-154s-69-155-154-155h-194c-85 0-155 70-155 155z"/>
    <path d="M2348 1786v660c-72-42-162-58-257-25a309 309 0 00153 596 317 317 0 00259-316v-761h194c85 0 154-69 154-154s-69-154-154-154h-194c-85 0-155 69-155 154z"/>
    <path d="M2345 1783v660c-72-41-162-58-257-24a309 309 0 00153 596 317 317 0 00259-317v-760h194a155 155 0 000-309h-194c-85 0-155 70-155 154z"/>
    <path d="M2342 1781v660c-72-42-162-58-257-25a309 309 0 00153 596 317 317 0 00259-317v-760h194c85 0 154-69 154-154s-69-155-154-155h-194c-85 0-155 70-155 155z"/>
    <path d="M2339 1778v660c-72-42-162-58-257-25a309 309 0 00153 596 317 317 0 00259-316v-760h194a155 155 0 000-309h-194c-85 0-155 69-155 154z"/>
    <path d="M2336 1776v659c-72-41-162-57-257-24a309 309 0 00153 596 317 317 0 00259-317v-760h194c85 0 154-70 154-154s-69-155-154-155h-194c-85 0-155 70-155 155z"/>
    <path d="M2333 1773v660c-72-42-162-58-257-25a309 309 0 00153 596 317 317 0 00259-317v-760h194c85 0 154-69 154-154s-69-154-154-154h-194c-85 0-155 69-155 154z"/>
    <path d="M2330 1770v660c-72-41-162-58-257-25a309 309 0 00153 596 317 317 0 00259-316v-760h194a155 155 0 000-309h-194c-85 0-155 69-155 154z"/>
    <path d="M2327 1768v660c-72-42-162-58-257-25a309 309 0 00153 596 317 317 0 00258-317v-760h195c85 0 154-69 154-154s-69-155-154-155h-194c-85 0-155 70-155 155z"/>
    <path d="M2324 1765v660c-72-42-162-58-257-25a309 309 0 00153 596 317 317 0 00258-316v-761h195c85 0 154-69 154-154s-69-154-154-154h-194c-85 0-155 69-155 154z"/>
    <path d="M2321 1762v660c-72-41-162-58-257-24a309 309 0 00153 596 317 317 0 00258-317v-760h195a155 155 0 000-309h-195c-84 0-154 70-154 154z"/>
    <path d="M2318 1760v660c-72-42-162-58-257-25a309 309 0 00153 596 317 317 0 00258-317v-760h195c84 0 154-69 154-154s-70-155-154-155h-195c-84 0-154 70-154 155z"/>
    <path d="M2315 1757v660c-72-42-162-58-257-25a309 309 0 00153 596 317 317 0 00258-316v-760h195a155 155 0 000-309h-195c-84 0-154 69-154 154z"/>
    <path d="M2312 1755v659c-73-41-162-57-257-24a309 309 0 00153 596 317 317 0 00258-317v-760h195c84 0 154-70 154-154s-70-155-154-155h-195c-84 0-154 70-154 155z"/>
    <path d="M2309 1752v660c-73-42-162-58-257-25a309 309 0 00153 596 317 317 0 00258-316v-761h195c84 0 154-69 154-154s-70-154-154-154h-195c-84 0-154 69-154 154z"/>
    <path d="M2306 1749v660c-73-41-162-58-257-25a309 309 0 00153 596 317 317 0 00258-316v-760h195a155 155 0 000-309h-195c-85 0-154 69-154 154z"/>
    <path d="M2303 1747v660c-73-42-162-58-257-25a309 309 0 00153 596 317 317 0 00258-317v-760h195c84 0 154-69 154-154s-70-155-154-155h-195c-85 0-154 70-154 155z"/>
    <path d="M2300 1744v660c-73-42-162-58-257-25a309 309 0 00153 596 317 317 0 00258-316v-761h194c85 0 155-69 155-154s-70-154-155-154h-194c-85 0-154 69-154 154z"/>
    <path d="M2297 1741v660c-73-41-162-58-257-24a309 309 0 00153 596 317 317 0 00258-317v-760h194a155 155 0 000-309h-194c-85 0-154 70-154 154z"/>
    <path d="M2294 1739v660c-73-42-162-58-257-25a309 309 0 00153 596 317 317 0 00258-317v-760h194c85 0 155-69 155-154s-70-155-155-155h-194c-85 0-154 70-154 155z"/>
    <path d="M2291 1736v660c-73-42-162-58-257-25a309 309 0 00153 596 317 317 0 00258-316v-760h194a155 155 0 000-309h-194c-85 0-154 69-154 154z"/>
    <path d="M2288 1734v659c-73-41-162-57-257-24a309 309 0 00153 596 317 317 0 00258-317v-760h194c85 0 155-69 155-154s-70-155-155-155h-194c-85 0-154 70-154 155z"/>
    <path d="M2285 1731v660c-73-42-162-58-257-25a309 309 0 00153 596 317 317 0 00258-316v-761h194c85 0 155-69 155-154s-70-154-155-154h-194c-85 0-154 69-154 154z"/>
    <path d="M2282 1728v660c-73-41-162-58-257-24a309 309 0 00153 596 317 317 0 00258-317v-760h194a155 155 0 000-309h-194c-85 0-154 69-154 154z"/>
    <path d="M2279 1726v660c-73-42-162-58-257-25a309 309 0 00153 596 317 317 0 00258-317v-760h194c85 0 155-69 155-154s-70-155-155-155h-194c-85 0-154 70-154 155z"/>
    <path d="M2276 1723v660c-73-42-162-58-257-25a309 309 0 00153 596 317 317 0 00258-316v-761h194c85 0 155-69 155-154s-70-154-155-154h-194c-85 0-154 69-154 154z"/>
    <path d="M2273 1720v660c-73-41-162-58-257-24a309 309 0 00153 596 317 317 0 00258-317v-760h194a155 155 0 000-309h-194c-85 0-154 70-154 154z"/>
    <path d="M2270 1718v660c-73-42-162-58-257-25a309 309 0 00153 596 317 317 0 00258-317v-760h194c85 0 155-69 155-154s-70-154-155-154h-194c-85 0-154 69-154 154z"/>
    <path d="M2267 1715v660c-73-42-162-58-257-25a309 309 0 00153 596 317 317 0 00258-316v-760h194a155 155 0 000-309h-194c-85 0-154 69-154 154z"/>
    <path d="M2264 1713v659c-73-41-162-57-257-24a309 309 0 00153 596 317 317 0 00258-317v-760h194c85 0 155-69 155-154s-70-155-155-155h-194c-85 0-154 70-154 155z"/>
    <path d="M2261 1710v660c-73-42-162-58-257-25a309 309 0 00153 596 317 317 0 00258-316v-761h194c85 0 155-69 155-154s-70-154-155-154h-194c-85 0-154 69-154 154z"/>
    <path d="M2258 1707v660c-73-41-162-58-257-24a309 309 0 00153 596 317 317 0 00258-317v-760h194a155 155 0 000-309h-194c-85 0-154 69-154 154z"/>
    <path d="M2255 1705v660c-73-42-162-58-257-25a309 309 0 00153 596 317 317 0 00258-317v-760h194c85 0 155-69 155-154s-70-155-155-155h-194c-85 0-154 70-154 155z"/>
    <path d="M2252 1702v660c-73-42-162-58-257-25a309 309 0 00153 596 317 317 0 00258-316v-761h194c85 0 154-69 154-154s-69-154-154-154h-194c-85 0-154 69-154 154z"/>
    <path d="M2249 1700v659c-73-41-163-57-257-24a309 309 0 00153 596 317 317 0 00258-317v-760h194a155 155 0 000-309h-194c-85 0-154 70-154 155z"/>
    <path d="M2246 1697v660c-73-42-163-58-257-25a309 309 0 00153 596 317 317 0 00258-317v-760h194c85 0 154-69 154-154s-69-154-154-154h-194c-85 0-154 69-154 154z"/>
    <path d="M2243 1694v660c-73-42-163-58-257-25a309 309 0 00153 596 317 317 0 00258-316v-760h194a155 155 0 000-309h-194c-85 0-154 69-154 154z"/>
    <path d="M2240 1692v660c-73-42-163-58-257-25a309 309 0 00153 596 317 317 0 00258-317v-760h194c85 0 154-69 154-154s-69-155-154-155h-194c-85 0-154 70-154 155z"/>
    <path d="M2237 1689v660c-73-42-163-58-257-25a309 309 0 00153 596 317 317 0 00258-316v-761h194c85 0 154-69 154-154s-69-154-154-154h-194c-85 0-154 69-154 154z"/>
    <path d="M2233 1686v660c-72-41-162-58-257-24a309 309 0 00153 596 317 317 0 00259-317v-760h194a155 155 0 000-309h-194c-85 0-155 69-155 154z"/>
    <path d="M2230 1684v660c-72-42-162-58-257-25a309 309 0 00153 596 317 317 0 00259-317v-760h194c85 0 154-69 154-154s-69-155-154-155h-194c-85 0-155 70-155 155z"/>
    <path d="M2227 1681v660c-72-42-162-58-257-25a309 309 0 00153 596 317 317 0 00259-316v-760h194a155 155 0 000-309h-194c-85 0-155 69-155 154z"/>
    <path d="M2224 1679v659c-72-41-162-57-257-24a309 309 0 00153 596 317 317 0 00259-317v-760h194c85 0 154-70 154-154s-69-155-154-155h-194c-85 0-155 70-155 155z"/>
    <path d="M2221 1676v660c-72-42-162-58-257-25a309 309 0 00153 596 317 317 0 00259-317v-760h194c85 0 154-69 154-154s-69-154-154-154h-194c-85 0-155 69-155 154z"/>
    <path d="M2218 1673v660c-72-42-162-58-257-25a309 309 0 00153 596 317 317 0 00259-316v-760h194a155 155 0 000-309h-194c-85 0-155 69-155 154z"/>
    <path d="M2215 1671v660c-72-42-162-58-257-25a309 309 0 00153 596 317 317 0 00259-317v-760h194c85 0 154-69 154-154s-69-155-154-155h-194c-85 0-155 70-155 155z"/>
    <path d="M2212 1668v660c-72-42-162-58-257-25a309 309 0 00153 596 317 317 0 00259-316v-761h194c85 0 154-69 154-154s-69-154-154-154h-194c-85 0-155 69-155 154z"/>
    <path d="M2209 1665v660c-72-41-162-58-257-24a309 309 0 00153 596 317 317 0 00259-317v-760h194a155 155 0 000-309h-194c-85 0-155 70-155 154z"/>
    <path d="M2206 1663v660c-72-42-162-58-257-25a309 309 0 00153 596 317 317 0 00259-317v-760h194c85 0 154-69 154-154s-69-155-154-155h-194c-85 0-155 70-155 155z"/>
    <path d="M2203 1660v660c-72-42-162-58-257-25a309 309 0 00153 596 317 317 0 00259-316v-760h194a155 155 0 000-309h-194c-85 0-155 69-155 154z"/>
    <path d="M2200 1658v659c-72-41-162-57-257-24a309 309 0 00153 596 317 317 0 00259-317v-760h194c85 0 154-70 154-154s-69-155-154-155h-194c-85 0-155 70-155 155z"/>
    <path d="M2197 1655v660c-72-42-162-58-257-25a309 309 0 00153 596 317 317 0 00259-317v-760h194c85 0 154-69 154-154s-69-154-154-154h-194c-85 0-155 69-155 154z"/>
    <path d="M2194 1652v660c-72-41-162-58-257-25a309 309 0 00153 596 317 317 0 00259-316v-760h194a155 155 0 000-309h-194c-85 0-155 69-155 154z"/>
    <path d="M2191 1650v660c-72-42-162-58-257-25a309 309 0 00153 596 317 317 0 00259-317v-760h194c85 0 154-69 154-154s-69-155-154-155h-194c-85 0-155 70-155 155z"/>
    <path d="M2188 1647v660c-72-42-162-58-257-25a309 309 0 00153 596 317 317 0 00259-316v-761h194c85 0 154-69 154-154s-69-154-154-154h-194c-85 0-155 69-155 154z"/>
    <path d="M2185 1644v660c-72-41-162-58-257-24a309 309 0 00153 596 317 317 0 00259-317v-760h194a155 155 0 000-309h-194c-85 0-155 70-155 154z"/>
    <path d="M2182 1642v660c-72-42-162-58-257-25a309 309 0 00153 596 317 317 0 00258-317v-760h195c85 0 154-69 154-154s-69-155-154-155h-194c-85 0-155 70-155 155z"/>
    <path d="M2179 1639v660c-72-42-162-58-257-25a309 309 0 00153 596 317 317 0 00258-316v-760h195a155 155 0 000-309h-194c-85 0-155 69-155 154z"/>
    <path d="M2176 1637v659c-72-41-162-57-257-24a309 309 0 00153 596 317 317 0 00258-317v-760h195c84 0 154-70 154-154s-69-155-154-155h-195c-84 0-154 70-154 155z"/>
    <path d="M2173 1634v660c-72-42-162-58-257-25a309 309 0 00153 596 317 317 0 00258-316v-761h195c84 0 154-69 154-154s-70-154-154-154h-195c-84 0-154 69-154 154z"/>
    <path d="M2170 1631v660c-73-41-162-58-257-24a309 309 0 00153 596 317 317 0 00258-317v-760h195a155 155 0 000-309h-195c-84 0-154 69-154 154z"/>
    <path d="M2167 1629v660c-73-42-162-58-257-25a309 309 0 00153 596 317 317 0 00258-317v-760h195c84 0 154-69 154-154s-70-155-154-155h-195c-84 0-154 70-154 155z"/>
    <path d="M2164 1626v660c-73-42-162-58-257-25a309 309 0 00153 596 317 317 0 00258-316v-761h195c84 0 154-69 154-154s-70-154-154-154h-195c-85 0-154 69-154 154z"/>
    <path d="M2161 1623v660c-73-41-162-58-257-24a309 309 0 00153 596 317 317 0 00258-317v-760h195a155 155 0 000-309h-195c-85 0-154 70-154 154z"/>
    <path d="M2158 1621v660c-73-42-162-58-257-25a309 309 0 00153 596 317 317 0 00258-317v-760h194c85 0 155-69 155-154s-70-155-155-155h-194c-85 0-154 70-154 155z"/>
    <path d="M2155 1618v660c-73-42-162-58-257-25a309 309 0 00153 596 317 317 0 00258-316v-760h194a155 155 0 000-309h-194c-85 0-154 69-154 154z"/>
    <path d="M2152 1616v659c-73-41-162-57-257-24a309 309 0 00153 596 317 317 0 00258-317v-760h194c85 0 155-69 155-154s-70-155-155-155h-194c-85 0-154 70-154 155z"/>
    <path d="M2149 1613v660c-73-42-162-58-257-25a309 309 0 00153 596 317 317 0 00258-316v-761h194c85 0 155-69 155-154s-70-154-155-154h-194c-85 0-154 69-154 154z"/>
    <path d="M2146 1610v660c-73-41-162-58-257-24a309 309 0 00153 596 317 317 0 00258-317v-760h194a155 155 0 000-309h-194c-85 0-154 69-154 154z"/>
    <path d="M2143 1608v660c-73-42-162-58-257-25a309 309 0 00153 596 317 317 0 00258-317v-760h194c85 0 155-69 155-154s-70-155-155-155h-194c-85 0-154 70-154 155z"/>
    <path d="M2140 1605v660c-73-42-162-58-257-25a309 309 0 00153 596 317 317 0 00258-316v-761h194c85 0 155-69 155-154s-70-154-155-154h-194c-85 0-154 69-154 154z"/>
    <path d="M2137 1602v660c-73-41-162-58-257-24a309 309 0 00153 596 317 317 0 00258-317v-760h194a155 155 0 000-309h-194c-85 0-154 70-154 154z"/>
    <path d="M2134 1600v660c-73-42-162-58-257-25a309 309 0 00153 596 317 317 0 00258-317v-760h194c85 0 155-69 155-154s-70-154-155-154h-194c-85 0-154 69-154 154z"/>
    <path d="M2131 1597v660c-73-42-162-58-257-25a309 309 0 00153 596 317 317 0 00258-316v-760h194a155 155 0 000-309h-194c-85 0-154 69-154 154z"/>
    <path d="M2128 1595v660c-73-42-162-58-257-25a309 309 0 00153 596 317 317 0 00258-317v-760h194c85 0 155-69 155-154s-70-155-155-155h-194c-85 0-154 70-154 155z"/>
    <path d="M2125 1592v660c-73-42-162-58-257-25a309 309 0 00153 596 317 317 0 00258-316v-761h194c85 0 155-69 155-154s-70-154-155-154h-194c-85 0-154 69-154 154z"/>
    <path d="M2122 1589v660c-73-41-162-58-257-24a309 309 0 00153 596 317 317 0 00258-317v-760h194a155 155 0 000-309h-194c-85 0-154 69-154 154z"/>
    <path d="M2119 1587v660c-73-42-162-58-257-25a309 309 0 00153 596 317 317 0 00258-317v-760h194c85 0 155-69 155-154s-70-155-155-155h-194c-85 0-154 70-154 155z"/>
    <path d="M2116 1584v660c-73-42-162-58-257-25a309 309 0 00153 596 317 317 0 00258-316v-761h194c85 0 155-69 155-154s-70-154-155-154h-194c-85 0-154 69-154 154z"/>
    <path d="M2113 1582v659c-73-41-162-57-257-24a309 309 0 00153 596 317 317 0 00258-317v-760h194c85 0 155-70 155-154s-70-155-155-155h-194c-85 0-154 70-154 155z"/>
    <path d="M2110 1579v660c-73-42-162-58-257-25a309 309 0 00153 596 317 317 0 00258-317v-760h194c85 0 155-69 155-154s-70-154-155-154h-194c-85 0-154 69-154 154z"/>
    <path d="M2107 1576v660c-73-42-162-58-257-25a309 309 0 00153 596 317 317 0 00258-316v-760h194a155 155 0 000-309h-194c-85 0-154 69-154 154z"/>
    <path d="M2104 1574v660c-73-42-163-58-257-25a309 309 0 00153 596 317 317 0 00258-317v-760h194c85 0 154-69 154-154s-69-155-154-155h-194c-85 0-154 70-154 155z"/>
    <path d="M2101 1571v660c-73-42-163-58-257-25a309 309 0 00153 596 317 317 0 00258-316v-761h194c85 0 154-69 154-154s-69-154-154-154h-194c-85 0-154 69-154 154z"/>
    <path d="M2098 1568v660c-73-41-163-58-257-24a309 309 0 00153 596 317 317 0 00258-317v-760h194a155 155 0 000-309h-194c-85 0-154 70-154 154z"/>
    <path d="M2095 1566v660c-73-42-163-58-257-25a309 309 0 00153 596 317 317 0 00258-317v-760h194c85 0 154-69 154-154s-69-155-154-155h-194c-85 0-154 70-154 155z"/>
    <path d="M2091 1563v660c-72-42-162-58-257-25a309 309 0 00153 596 317 317 0 00259-316v-760h194a155 155 0 000-309h-194c-85 0-155 69-155 154z"/>
    <path d="M2088 1561v659c-72-41-162-57-257-24a309 309 0 00153 596 317 317 0 00259-317v-760h194c85 0 154-70 154-154s-69-155-154-155h-194c-85 0-155 70-155 155z"/>
    <path d="M2085 1558v660c-72-42-162-58-257-25a309 309 0 00153 596 317 317 0 00259-317v-760h194c85 0 154-69 154-154s-69-154-154-154h-194c-85 0-155 69-155 154z"/>
    <path d="M2082 1555v660c-72-41-162-58-257-25a309 309 0 00153 596 317 317 0 00259-316v-760h194a155 155 0 000-309h-194c-85 0-155 69-155 154z"/>
    <path d="M2079 1553v660c-72-42-162-58-257-25a309 309 0 00153 596 317 317 0 00259-317v-760h194c85 0 154-69 154-154s-69-155-154-155h-194c-85 0-155 70-155 155z"/>
    <path d="M2076 1550v660c-72-42-162-58-257-25a309 309 0 00153 596 317 317 0 00259-316v-761h194c85 0 154-69 154-154s-69-154-154-154h-194c-85 0-155 69-155 154z"/>
    <path d="M2073 1547v660c-72-41-162-58-257-24a309 309 0 00153 596 317 317 0 00259-317v-760h194a155 155 0 000-309h-194c-85 0-155 70-155 154z"/>
    <path d="M2070 1545v660c-72-42-162-58-257-25a309 309 0 00153 596 317 317 0 00259-317v-760h194c85 0 154-69 154-154s-69-155-154-155h-194c-85 0-155 70-155 155z"/>
    <path d="M2067 1542v660c-72-42-162-58-257-25a309 309 0 00153 596 317 317 0 00259-316v-760h194a155 155 0 000-309h-194c-85 0-155 69-155 154z"/>
    <path d="M2064 1540v659c-72-41-162-57-257-24a309 309 0 00153 596 317 317 0 00259-317v-760h194c85 0 154-70 154-154s-69-155-154-155h-194c-85 0-155 70-155 155z"/>
    <path d="M2061 1537v660c-72-42-162-58-257-25a309 309 0 00153 596 317 317 0 00259-316v-761h194c85 0 154-69 154-154s-69-154-154-154h-194c-85 0-155 69-155 154z"/>
    <path d="M2058 1534v660c-72-41-162-58-257-25a309 309 0 00153 596 317 317 0 00259-316v-760h194a155 155 0 000-309h-194c-85 0-155 69-155 154z"/>
    <path d="M2055 1532v660c-72-42-162-58-257-25a309 309 0 00153 596 317 317 0 00259-317v-760h194c85 0 154-69 154-154s-69-155-154-155h-194c-85 0-155 70-155 155z"/>
    <path d="M2052 1529v660c-72-42-162-58-257-25a309 309 0 00153 596 317 317 0 00259-316v-761h194c85 0 154-69 154-154s-69-154-154-154h-194c-85 0-155 69-155 154z"/>
    <path d="M2049 1526v660c-72-41-162-58-257-24a309 309 0 00153 596 317 317 0 00259-317v-760h194a155 155 0 000-309h-194c-85 0-155 70-155 154z"/>
    <path d="M2046 1524v660c-72-42-162-58-257-25a309 309 0 00153 596 317 317 0 00259-317v-760h194c85 0 154-69 154-154s-69-155-154-155h-194c-85 0-155 70-155 155z"/>
    <path d="M2043 1521v660c-72-42-162-58-257-25a309 309 0 00153 596 317 317 0 00259-316v-760h194a155 155 0 000-309h-194c-85 0-155 69-155 154z"/>
    <path d="M2040 1519v659c-72-41-162-57-257-24a309 309 0 00153 596 317 317 0 00258-317v-760h195c85 0 154-70 154-154s-69-155-154-155h-194c-85 0-155 70-155 155z"/>
    <path d="M2037 1516v660c-72-42-162-58-257-25a309 309 0 00153 596 317 317 0 00258-316v-761h195c85 0 154-69 154-154s-69-154-154-154h-194c-85 0-155 69-155 154z"/>
    <path d="M2034 1513v660c-72-41-162-58-257-24a309 309 0 00153 596 317 317 0 00258-317v-760h195a155 155 0 000-309h-195c-84 0-154 69-154 154z"/>
    <path d="M2031 1511v660c-72-42-162-58-257-25a309 309 0 00153 596 317 317 0 00258-317v-760h195c84 0 154-69 154-154s-70-155-154-155h-195c-84 0-154 70-154 155z"/>
    <path d="M2028 1508v660c-73-42-162-58-257-25a309 309 0 00153 596 317 317 0 00258-316v-761h195c84 0 154-69 154-154s-70-154-154-154h-195c-84 0-154 69-154 154z"/>
  </g>
  <path fill="#fff" d="M2028 1508v660c-73-42-162-58-257-25a309 309 0 00153 596 317 317 0 00258-317v-760h195c84 0 154-69 154-154s-70-155-154-155h-195c-84 0-154 70-154 155z"/>
</svg>
