<svg id="Слой_1" data-name="Слой 1" xmlns="http://www.w3.org/2000/svg" viewBox="0 0 24 24"><title>add_to_queue</title><path d="M8.79753,10.656h10a1,1,0,0,1,0,2h-10a1,1,0,1,1,0-2Zm3.5,4.1h6.5a1,1,0,0,1,0,2h-6.5a.94477.94477,0,0,1-1-1A1.00209,1.00209,0,0,1,12.29753,14.756Zm-3.5-8.1h10a1,1,0,0,1,0,2h-10a.94477.94477,0,0,1-1-1,.94477.94477,0,0,1,1-1Z"/><path d="M5.78121,15.29143H2.91913a.81773.81773,0,0,0-.81774.81772v0h0a.81773.81773,0,0,0,.81773.81773H5.78121v1.22619a.40888.40888,0,0,0,.64639.33281l2.86423-2.04414a.40889.40889,0,0,0,0-.66561L6.4276,13.732h0a.40888.40888,0,0,0-.64639.33281h0Z"/></svg>