<svg id="Слой_1" data-name="Слой 1" xmlns="http://www.w3.org/2000/svg" viewBox="0 0 24 24"><title>play_next</title><path d="M8.79753,10.64088h10a1,1,0,0,1,0,2h-10a1,1,0,1,1,0-2Zm.00087,4.10086h10a1,1,0,0,1,0,2h-10a1.00162,1.00162,0,1,1,0-2Z"/><path d="M12.29753,8.64316h6.5a1,1,0,0,0,0-2h-6.5a.94477.94477,0,0,0-1,1A1.00209,1.00209,0,0,0,12.29753,8.64316Z"/><path d="M5.78121,8.10768H2.91913A.81772.81772,0,0,1,2.10139,7.29v0h0a.81773.81773,0,0,1,.81773-.81773H5.78121V5.246a.4089.4089,0,0,1,.64639-.33281L9.29183,6.95732a.40885.40885,0,0,1,0,.66561L6.4276,9.6671h0a.40887.40887,0,0,1-.64639-.33281h0Z"/></svg>